<svg xmlns="http://www.w3.org/2000/svg" xmlns:xlink="http://www.w3.org/1999/xlink" viewBox="0 0 1293 243" version="1.0"><defs><g/><clipPath id="6ec86f9139"><path d="M 1 0.359375 L 141 0.359375 L 141 186 L 1 186 Z M 1 0.359375 " clip-rule="nonzero"/></clipPath><clipPath id="93af73c8c4"><path d="M 1021 0.359375 L 1093 0.359375 L 1093 184 L 1021 184 Z M 1021 0.359375 " clip-rule="nonzero"/></clipPath><clipPath id="dccd752bf0"><rect x="0" width="1293" y="0" height="243"/></clipPath><clipPath id="f0e6ae599c"><path d="M 289 768 L 360 768 L 360 839 L 289 839 Z M 289 768 " clip-rule="nonzero"/></clipPath><clipPath id="8669da8f60"><path d="M 276.574219 793.234375 L 335.179688 755.050781 L 373.363281 813.65625 L 314.757812 851.839844 Z M 276.574219 793.234375 " clip-rule="nonzero"/></clipPath><clipPath id="57f03a6db4"><path d="M 305.878906 774.140625 C 289.695312 784.683594 285.121094 806.351562 295.667969 822.535156 C 306.210938 838.71875 327.878906 843.292969 344.0625 832.746094 C 360.246094 822.203125 364.816406 800.535156 354.273438 784.351562 C 343.730469 768.167969 322.0625 763.597656 305.878906 774.140625 Z M 305.878906 774.140625 " clip-rule="nonzero"/></clipPath><clipPath id="693ba3bbed"><path d="M 0 0 L 71 0 L 71 71 L 0 71 Z M 0 0 " clip-rule="nonzero"/></clipPath><clipPath id="a22a679dc1"><path d="M -12.425781 25.234375 L 46.179688 -12.949219 L 84.363281 45.65625 L 25.757812 83.839844 Z M -12.425781 25.234375 " clip-rule="nonzero"/></clipPath><clipPath id="2e13c24e51"><path d="M 16.878906 6.140625 C 0.695312 16.683594 -3.878906 38.351562 6.667969 54.535156 C 17.210938 70.71875 38.878906 75.292969 55.0625 64.746094 C 71.246094 54.203125 75.816406 32.535156 65.273438 16.351562 C 54.730469 0.167969 33.0625 -4.402344 16.878906 6.140625 Z M 16.878906 6.140625 " clip-rule="nonzero"/></clipPath><clipPath id="fe30034d00"><rect x="0" width="71" y="0" height="71"/></clipPath><clipPath id="92d46f9cb5"><path d="M 460 661 L 531 661 L 531 732 L 460 732 Z M 460 661 " clip-rule="nonzero"/></clipPath><clipPath id="2aa9d126a9"><path d="M 446.847656 686.335938 L 505.453125 648.152344 L 543.636719 706.757812 L 485.03125 744.941406 Z M 446.847656 686.335938 " clip-rule="nonzero"/></clipPath><clipPath id="dc470e9c1c"><path d="M 476.152344 667.246094 C 459.96875 677.789062 455.394531 699.457031 465.941406 715.640625 C 476.484375 731.824219 498.152344 736.394531 514.335938 725.851562 C 530.519531 715.308594 535.089844 693.640625 524.546875 677.457031 C 514.003906 661.273438 492.335938 656.699219 476.152344 667.246094 Z M 476.152344 667.246094 " clip-rule="nonzero"/></clipPath><clipPath id="0f1a4543d7"><path d="M 0 0 L 71 0 L 71 71 L 0 71 Z M 0 0 " clip-rule="nonzero"/></clipPath><clipPath id="1b1b218e04"><path d="M -13.152344 25.335938 L 45.453125 -12.847656 L 83.636719 45.757812 L 25.03125 83.941406 Z M -13.152344 25.335938 " clip-rule="nonzero"/></clipPath><clipPath id="2a0a2315ba"><path d="M 16.152344 6.246094 C -0.03125 16.789062 -4.605469 38.457031 5.941406 54.640625 C 16.484375 70.824219 38.152344 75.394531 54.335938 64.851562 C 70.519531 54.308594 75.089844 32.640625 64.546875 16.457031 C 54.003906 0.273438 32.335938 -4.300781 16.152344 6.246094 Z M 16.152344 6.246094 " clip-rule="nonzero"/></clipPath><clipPath id="1d4a4d03d7"><rect x="0" width="71" y="0" height="71"/></clipPath><clipPath id="997cdde104"><path d="M 798 673 L 845 673 L 845 720 L 798 720 Z M 798 673 " clip-rule="nonzero"/></clipPath><clipPath id="fb29041355"><path d="M 789.664062 689.832031 L 828.222656 664.710938 L 853.34375 703.269531 L 814.785156 728.390625 Z M 789.664062 689.832031 " clip-rule="nonzero"/></clipPath><clipPath id="5515ac3e03"><path d="M 808.941406 677.273438 C 798.292969 684.210938 795.285156 698.464844 802.222656 709.113281 C 809.160156 719.761719 823.417969 722.769531 834.0625 715.832031 C 844.710938 708.894531 847.71875 694.636719 840.78125 683.992188 C 833.84375 673.34375 819.589844 670.335938 808.941406 677.273438 Z M 808.941406 677.273438 " clip-rule="nonzero"/></clipPath><clipPath id="4cbd3e004f"><path d="M 0 0 L 47 0 L 47 47 L 0 47 Z M 0 0 " clip-rule="nonzero"/></clipPath><clipPath id="549ec1cd8e"><path d="M -8.335938 16.832031 L 30.222656 -8.289062 L 55.34375 30.269531 L 16.785156 55.390625 Z M -8.335938 16.832031 " clip-rule="nonzero"/></clipPath><clipPath id="fb3800fcf4"><path d="M 10.941406 4.273438 C 0.292969 11.210938 -2.714844 25.464844 4.222656 36.113281 C 11.160156 46.761719 25.417969 49.769531 36.0625 42.832031 C 46.710938 35.894531 49.71875 21.636719 42.78125 10.992188 C 35.84375 0.34375 21.589844 -2.664062 10.941406 4.273438 Z M 10.941406 4.273438 " clip-rule="nonzero"/></clipPath><clipPath id="2706b6f9f6"><rect x="0" width="47" y="0" height="47"/></clipPath><clipPath id="8ba8a1cd03"><path d="M 1060 781 L 1107 781 L 1107 828 L 1060 828 Z M 1060 781 " clip-rule="nonzero"/></clipPath><clipPath id="a7dfd17af3"><path d="M 1051.332031 798.027344 L 1089.890625 772.902344 L 1115.011719 811.460938 L 1076.453125 836.585938 Z M 1051.332031 798.027344 " clip-rule="nonzero"/></clipPath><clipPath id="12c1ecc987"><path d="M 1070.613281 785.464844 C 1059.964844 792.402344 1056.957031 806.65625 1063.894531 817.304688 C 1070.832031 827.953125 1085.085938 830.960938 1095.734375 824.023438 C 1106.382812 817.085938 1109.390625 802.832031 1102.453125 792.183594 C 1095.515625 781.535156 1081.257812 778.527344 1070.613281 785.464844 Z M 1070.613281 785.464844 " clip-rule="nonzero"/></clipPath><clipPath id="43a55eff50"><path d="M 0 0 L 47 0 L 47 47 L 0 47 Z M 0 0 " clip-rule="nonzero"/></clipPath><clipPath id="312e6fc3ae"><path d="M -8.667969 17.027344 L 29.890625 -8.097656 L 55.011719 30.460938 L 16.453125 55.585938 Z M -8.667969 17.027344 " clip-rule="nonzero"/></clipPath><clipPath id="ed298ae9d1"><path d="M 10.613281 4.464844 C -0.0351562 11.402344 -3.042969 25.65625 3.894531 36.304688 C 10.832031 46.953125 25.085938 49.960938 35.734375 43.023438 C 46.382812 36.085938 49.390625 21.832031 42.453125 11.183594 C 35.515625 0.535156 21.257812 -2.472656 10.613281 4.464844 Z M 10.613281 4.464844 " clip-rule="nonzero"/></clipPath><clipPath id="aab42d61b9"><rect x="0" width="47" y="0" height="47"/></clipPath><clipPath id="25eba3cfc4"><path d="M 1349 673 L 1396 673 L 1396 720 L 1349 720 Z M 1349 673 " clip-rule="nonzero"/></clipPath><clipPath id="9bd1e545a1"><path d="M 1340.59375 689.832031 L 1379.152344 664.710938 L 1404.273438 703.269531 L 1365.714844 728.390625 Z M 1340.59375 689.832031 " clip-rule="nonzero"/></clipPath><clipPath id="db4e79af92"><path d="M 1359.871094 677.273438 C 1349.226562 684.210938 1346.21875 698.464844 1353.15625 709.113281 C 1360.089844 719.761719 1374.347656 722.769531 1384.996094 715.832031 C 1395.640625 708.894531 1398.648438 694.636719 1391.710938 683.992188 C 1384.777344 673.34375 1370.519531 670.335938 1359.871094 677.273438 Z M 1359.871094 677.273438 " clip-rule="nonzero"/></clipPath><clipPath id="ed336d3779"><path d="M 0 0 L 47 0 L 47 47 L 0 47 Z M 0 0 " clip-rule="nonzero"/></clipPath><clipPath id="8ec267d66d"><path d="M -8.40625 16.832031 L 30.152344 -8.289062 L 55.273438 30.269531 L 16.714844 55.390625 Z M -8.40625 16.832031 " clip-rule="nonzero"/></clipPath><clipPath id="a459c998f3"><path d="M 10.871094 4.273438 C 0.226562 11.210938 -2.78125 25.464844 4.15625 36.113281 C 11.089844 46.761719 25.347656 49.769531 35.996094 42.832031 C 46.640625 35.894531 49.648438 21.636719 42.710938 10.992188 C 35.777344 0.34375 21.519531 -2.664062 10.871094 4.273438 Z M 10.871094 4.273438 " clip-rule="nonzero"/></clipPath><clipPath id="63ff09ca08"><rect x="0" width="47" y="0" height="47"/></clipPath></defs><g transform="matrix(1, 0, 0, 1, 103, 633)"><g clip-path="url(#dccd752bf0)"><g clip-path="url(#6ec86f9139)"><g fill="#1800ad" fill-opacity="1"><g transform="translate(2.928634, 183.284281)"><g><path d="M 74.984375 1.890625 C 63.171875 1.890625 52.972656 0.34375 44.390625 -2.75 C 35.816406 -5.851562 28.597656 -10.25 22.734375 -15.9375 C 16.867188 -21.632812 12.175781 -28.3125 8.65625 -35.96875 C 5.144531 -43.632812 2.613281 -52.09375 1.0625 -61.34375 C -0.476562 -70.601562 -1.25 -80.296875 -1.25 -90.421875 C -1.25 -100.554688 -0.476562 -110.25 1.0625 -119.5 C 2.613281 -128.75 5.144531 -137.203125 8.65625 -144.859375 C 12.175781 -152.523438 16.867188 -159.203125 22.734375 -164.890625 C 28.597656 -170.585938 35.816406 -174.984375 44.390625 -178.078125 C 52.972656 -181.179688 63.171875 -182.734375 74.984375 -182.734375 C 86.703125 -182.734375 96.554688 -181.332031 104.546875 -178.53125 C 112.546875 -175.726562 118.929688 -172.023438 123.703125 -167.421875 C 128.484375 -162.816406 131.941406 -157.789062 134.078125 -152.34375 C 136.210938 -146.90625 137.28125 -141.546875 137.28125 -136.265625 C 137.28125 -131.660156 136.378906 -127.453125 134.578125 -123.640625 C 132.773438 -119.835938 130.40625 -116.550781 127.46875 -113.78125 C 124.539062 -111.019531 121.273438 -108.882812 117.671875 -107.375 C 114.078125 -105.875 110.519531 -105.125 107 -105.125 C 102.476562 -105.125 98.5625 -106.628906 95.25 -109.640625 C 91.945312 -112.660156 90.296875 -117.476562 90.296875 -124.09375 C 90.296875 -128.945312 89.898438 -132.878906 89.109375 -135.890625 C 88.316406 -138.898438 86.832031 -141.097656 84.65625 -142.484375 C 82.476562 -143.867188 79.253906 -144.5625 74.984375 -144.5625 C 69.703125 -144.5625 65.320312 -143.15625 61.84375 -140.34375 C 58.375 -137.539062 55.632812 -133.648438 53.625 -128.671875 C 51.613281 -123.691406 50.171875 -117.9375 49.296875 -111.40625 C 48.421875 -104.875 47.984375 -97.878906 47.984375 -90.421875 C 47.984375 -82.972656 48.421875 -75.984375 49.296875 -69.453125 C 50.171875 -62.921875 51.613281 -57.164062 53.625 -52.1875 C 55.632812 -47.207031 58.375 -43.3125 61.84375 -40.5 C 65.320312 -37.695312 69.703125 -36.296875 74.984375 -36.296875 C 79.253906 -36.296875 82.476562 -36.984375 84.65625 -38.359375 C 86.832031 -39.742188 88.316406 -41.941406 89.109375 -44.953125 C 89.898438 -47.972656 90.296875 -51.910156 90.296875 -56.765625 C 90.296875 -63.460938 91.945312 -68.296875 95.25 -71.265625 C 98.5625 -74.242188 102.476562 -75.734375 107 -75.734375 C 110.519531 -75.734375 114.078125 -74.976562 117.671875 -73.46875 C 121.273438 -71.96875 124.539062 -69.832031 127.46875 -67.0625 C 130.40625 -64.300781 132.773438 -61.015625 134.578125 -57.203125 C 136.378906 -53.398438 137.28125 -49.191406 137.28125 -44.578125 C 137.28125 -39.304688 136.210938 -33.945312 134.078125 -28.5 C 131.941406 -23.0625 128.484375 -18.039062 123.703125 -13.4375 C 118.929688 -8.832031 112.546875 -5.125 104.546875 -2.3125 C 96.554688 0.488281 86.703125 1.890625 74.984375 1.890625 Z M 74.984375 1.890625 "/></g></g></g></g><g fill="#1800ad" fill-opacity="1"><g transform="translate(143.974817, 183.284281)"><g><path d="M 62.671875 1.890625 C 50.109375 1.890625 39.390625 -0.804688 30.515625 -6.203125 C 21.640625 -11.609375 14.859375 -19.164062 10.171875 -28.875 C 5.484375 -38.59375 3.140625 -49.941406 3.140625 -62.921875 C 3.140625 -75.816406 5.484375 -87.097656 10.171875 -96.765625 C 14.859375 -106.441406 21.640625 -113.976562 30.515625 -119.375 C 39.390625 -124.78125 50.109375 -127.484375 62.671875 -127.484375 C 75.234375 -127.484375 85.953125 -124.78125 94.828125 -119.375 C 103.703125 -113.976562 110.484375 -106.441406 115.171875 -96.765625 C 119.859375 -87.097656 122.203125 -75.816406 122.203125 -62.921875 C 122.203125 -49.941406 119.859375 -38.59375 115.171875 -28.875 C 110.484375 -19.164062 103.703125 -11.609375 94.828125 -6.203125 C 85.953125 -0.804688 75.234375 1.890625 62.671875 1.890625 Z M 51.5 -62.671875 C 51.5 -53.296875 52.519531 -45.71875 54.5625 -39.9375 C 56.613281 -34.15625 59.316406 -31.265625 62.671875 -31.265625 C 66.015625 -31.265625 68.710938 -34.15625 70.765625 -39.9375 C 72.816406 -45.71875 73.84375 -53.296875 73.84375 -62.671875 C 73.84375 -72.128906 72.816406 -79.742188 70.765625 -85.515625 C 68.710938 -91.296875 66.015625 -94.1875 62.671875 -94.1875 C 59.316406 -94.1875 56.613281 -91.296875 54.5625 -85.515625 C 52.519531 -79.742188 51.5 -72.128906 51.5 -62.671875 Z M 51.5 -62.671875 "/></g></g></g><g fill="#1800ad" fill-opacity="1"><g transform="translate(269.3213, 183.284281)"><g><path d="M 1.25 -107.890625 C 1.25 -110.816406 2.421875 -113.09375 4.765625 -114.71875 C 7.117188 -116.351562 10.09375 -117.691406 13.6875 -118.734375 C 17.289062 -119.785156 20.972656 -120.816406 24.734375 -121.828125 C 26.242188 -122.242188 28.148438 -122.765625 30.453125 -123.390625 C 32.753906 -124.023438 35.097656 -124.65625 37.484375 -125.28125 C 39.867188 -125.90625 42.003906 -126.425781 43.890625 -126.84375 C 45.773438 -127.269531 47.140625 -127.484375 47.984375 -127.484375 C 50.328125 -127.484375 52.566406 -126.582031 54.703125 -124.78125 C 56.835938 -122.976562 58.570312 -119.648438 59.90625 -114.796875 C 60.070312 -114.117188 60.34375 -113.570312 60.71875 -113.15625 C 61.101562 -112.738281 61.710938 -112.53125 62.546875 -112.53125 C 63.296875 -112.53125 64.675781 -113.28125 66.6875 -114.78125 C 68.695312 -116.289062 71.289062 -118.03125 74.46875 -120 C 77.65625 -121.96875 81.425781 -123.707031 85.78125 -125.21875 C 90.132812 -126.726562 95.070312 -127.484375 100.59375 -127.484375 C 108.21875 -127.484375 114.375 -125.785156 119.0625 -122.390625 C 123.75 -118.992188 127.203125 -114.320312 129.421875 -108.375 C 131.640625 -102.4375 132.75 -95.617188 132.75 -87.921875 L 132.75 -62.796875 C 132.75 -57.015625 133.3125 -51.695312 134.4375 -46.84375 C 135.570312 -41.988281 136.914062 -37.488281 138.46875 -33.34375 C 140.019531 -29.195312 141.359375 -25.300781 142.484375 -21.65625 C 143.617188 -18.019531 144.1875 -14.523438 144.1875 -11.171875 C 144.1875 -8.160156 143.453125 -5.878906 141.984375 -4.328125 C 140.515625 -2.785156 138.710938 -1.695312 136.578125 -1.0625 C 134.441406 -0.4375 132.328125 -0.101562 130.234375 -0.0625 C 128.140625 -0.0195312 126.425781 0 125.09375 0 L 101.609375 0 C 100.515625 0 99.023438 0 97.140625 0 C 95.265625 0 93.238281 -0.144531 91.0625 -0.4375 C 88.882812 -0.726562 86.789062 -1.25 84.78125 -2 C 82.769531 -2.757812 81.132812 -3.867188 79.875 -5.328125 C 78.625 -6.796875 78 -8.742188 78 -11.171875 C 78 -16.785156 78.601562 -22.414062 79.8125 -28.0625 C 81.03125 -33.71875 82.242188 -39.429688 83.453125 -45.203125 C 84.671875 -50.984375 85.195312 -56.847656 85.03125 -62.796875 C 84.945312 -65.390625 84.734375 -68.128906 84.390625 -71.015625 C 84.054688 -73.910156 83.472656 -76.632812 82.640625 -79.1875 C 81.804688 -81.738281 80.59375 -83.832031 79 -85.46875 C 77.40625 -87.101562 75.351562 -87.921875 72.84375 -87.921875 C 70.164062 -87.921875 68.03125 -87.101562 66.4375 -85.46875 C 64.84375 -83.832031 63.671875 -81.738281 62.921875 -79.1875 C 62.171875 -76.632812 61.691406 -73.890625 61.484375 -70.953125 C 61.273438 -68.023438 61.171875 -65.304688 61.171875 -62.796875 C 61.171875 -57.941406 61.753906 -53.171875 62.921875 -48.484375 C 64.097656 -43.796875 65.4375 -39.273438 66.9375 -34.921875 C 68.445312 -30.566406 69.785156 -26.398438 70.953125 -22.421875 C 72.128906 -18.441406 72.71875 -14.691406 72.71875 -11.171875 C 72.71875 -8.742188 72.085938 -6.796875 70.828125 -5.328125 C 69.578125 -3.867188 67.945312 -2.757812 65.9375 -2 C 63.925781 -1.25 61.832031 -0.726562 59.65625 -0.4375 C 57.476562 -0.144531 55.445312 0 53.5625 0 C 51.675781 0 50.191406 0 49.109375 0 L 21.21875 0 C 19.882812 0 18.171875 -0.0195312 16.078125 -0.0625 C 13.984375 -0.101562 11.867188 -0.4375 9.734375 -1.0625 C 7.597656 -1.695312 5.796875 -2.785156 4.328125 -4.328125 C 2.867188 -5.878906 2.140625 -8.160156 2.140625 -11.171875 C 2.140625 -14.523438 2.703125 -18.019531 3.828125 -21.65625 C 4.960938 -25.300781 6.300781 -29.195312 7.84375 -33.34375 C 9.394531 -37.488281 10.734375 -41.988281 11.859375 -46.84375 C 12.992188 -51.695312 13.5625 -57.015625 13.5625 -62.796875 C 13.5625 -68.328125 13.140625 -73.015625 12.296875 -76.859375 C 11.460938 -80.710938 10.4375 -84.019531 9.21875 -86.78125 C 8.007812 -89.550781 6.796875 -92.019531 5.578125 -94.1875 C 4.367188 -96.363281 3.34375 -98.519531 2.5 -100.65625 C 1.664062 -102.789062 1.25 -105.203125 1.25 -107.890625 Z M 1.25 -107.890625 "/></g></g></g><g fill="#1800ad" fill-opacity="1"><g transform="translate(414.763389, 183.284281)"><g><path d="M 43.078125 1.890625 C 35.285156 1.890625 28.226562 0.238281 21.90625 -3.0625 C 15.59375 -6.375 10.570312 -11.191406 6.84375 -17.515625 C 3.113281 -23.835938 1.25 -31.476562 1.25 -40.4375 C 1.25 -46.382812 2.003906 -52.078125 3.515625 -57.515625 C 5.023438 -62.960938 6.910156 -68.113281 9.171875 -72.96875 C 11.429688 -77.820312 13.671875 -82.34375 15.890625 -86.53125 C 18.109375 -90.71875 19.96875 -94.546875 21.46875 -98.015625 C 22.976562 -101.492188 23.734375 -104.613281 23.734375 -107.375 C 23.734375 -109.550781 23.441406 -111.015625 22.859375 -111.765625 C 22.273438 -112.523438 21.394531 -112.90625 20.21875 -112.90625 C 19.132812 -112.90625 17.796875 -112.695312 16.203125 -112.28125 C 14.609375 -111.863281 12.890625 -111.65625 11.046875 -111.65625 C 7.535156 -111.65625 5.046875 -112.382812 3.578125 -113.84375 C 2.109375 -115.3125 1.375 -117.34375 1.375 -119.9375 C 1.375 -123.125 3.382812 -126.9375 7.40625 -131.375 C 11.425781 -135.8125 16.617188 -140.957031 22.984375 -146.8125 C 26.753906 -150.332031 30.375 -153.804688 33.84375 -157.234375 C 37.320312 -160.671875 40.421875 -163.519531 43.140625 -165.78125 C 45.859375 -168.039062 47.929688 -169.171875 49.359375 -169.171875 C 51.035156 -169.171875 52.269531 -168.601562 53.0625 -167.46875 C 53.851562 -166.34375 54.394531 -164.941406 54.6875 -163.265625 C 54.988281 -161.597656 55.140625 -160.007812 55.140625 -158.5 L 55.140625 -125.59375 L 60.28125 -125.59375 C 62.289062 -125.59375 63.921875 -124.960938 65.171875 -123.703125 C 66.429688 -122.453125 67.0625 -120.820312 67.0625 -118.8125 L 67.0625 -118.4375 C 67.0625 -116.425781 66.429688 -114.789062 65.171875 -113.53125 C 63.921875 -112.28125 62.289062 -111.65625 60.28125 -111.65625 L 55.140625 -111.65625 L 55.140625 -62.796875 C 55.140625 -55.097656 55.722656 -48.816406 56.890625 -43.953125 C 58.066406 -39.097656 59.53125 -35.222656 61.28125 -32.328125 C 63.039062 -29.441406 64.800781 -27.117188 66.5625 -25.359375 C 68.320312 -23.609375 69.785156 -22.039062 70.953125 -20.65625 C 72.128906 -19.28125 72.71875 -17.585938 72.71875 -15.578125 C 72.71875 -12.804688 71.816406 -10.332031 70.015625 -8.15625 C 68.210938 -5.976562 65.847656 -4.132812 62.921875 -2.625 C 59.992188 -1.125 56.789062 0 53.3125 0.75 C 49.84375 1.507812 46.429688 1.890625 43.078125 1.890625 Z M 43.078125 1.890625 "/></g></g></g><g fill="#1800ad" fill-opacity="1"><g transform="translate(488.740438, 183.284281)"><g><path d="M 3.140625 -62.796875 C 3.140625 -70.753906 4.5 -78.582031 7.21875 -86.28125 C 9.9375 -93.988281 14.078125 -100.9375 19.640625 -107.125 C 25.210938 -113.320312 32.25 -118.265625 40.75 -121.953125 C 49.25 -125.640625 59.316406 -127.484375 70.953125 -127.484375 C 77.398438 -127.484375 83.597656 -126.664062 89.546875 -125.03125 C 95.492188 -123.394531 100.789062 -120.921875 105.4375 -117.609375 C 110.082031 -114.304688 113.765625 -110.1875 116.484375 -105.25 C 119.203125 -100.3125 120.5625 -94.535156 120.5625 -87.921875 C 120.5625 -80.628906 119.453125 -74.300781 117.234375 -68.9375 C 115.015625 -63.582031 112.039062 -59.0625 108.3125 -55.375 C 104.59375 -51.695312 100.472656 -48.664062 95.953125 -46.28125 C 91.429688 -43.894531 86.867188 -41.988281 82.265625 -40.5625 C 77.910156 -39.226562 74.078125 -38.601562 70.765625 -38.6875 C 67.460938 -38.769531 64.847656 -38.8125 62.921875 -38.8125 C 61.835938 -38.8125 61.019531 -38.707031 60.46875 -38.5 C 59.925781 -38.289062 59.65625 -37.804688 59.65625 -37.046875 C 59.65625 -35.710938 60.382812 -34.625 61.84375 -33.78125 C 63.3125 -32.945312 65.070312 -32.335938 67.125 -31.953125 C 69.175781 -31.578125 71.039062 -31.390625 72.71875 -31.390625 C 77.238281 -31.390625 81.046875 -31.957031 84.140625 -33.09375 C 87.242188 -34.226562 89.96875 -35.503906 92.3125 -36.921875 C 94.65625 -38.347656 96.914062 -39.625 99.09375 -40.75 C 101.269531 -41.882812 103.65625 -42.453125 106.25 -42.453125 C 109.09375 -42.453125 111.539062 -41.757812 113.59375 -40.375 C 115.644531 -39 117.316406 -37.242188 118.609375 -35.109375 C 119.910156 -32.972656 120.875 -30.773438 121.5 -28.515625 C 122.132812 -26.253906 122.453125 -24.203125 122.453125 -22.359375 C 122.453125 -18.585938 120.628906 -14.835938 116.984375 -11.109375 C 113.347656 -7.390625 107.738281 -4.289062 100.15625 -1.8125 C 92.582031 0.65625 82.847656 1.890625 70.953125 1.890625 C 59.898438 1.890625 50.164062 0.0664062 41.75 -3.578125 C 33.34375 -7.222656 26.269531 -12.140625 20.53125 -18.328125 C 14.800781 -24.523438 10.46875 -31.472656 7.53125 -39.171875 C 4.601562 -46.878906 3.140625 -54.753906 3.140625 -62.796875 Z M 51.625 -76.109375 C 49.53125 -70.753906 48.773438 -66.421875 49.359375 -63.109375 C 49.941406 -59.804688 51.785156 -58.15625 54.890625 -58.15625 C 58.066406 -58.15625 61.265625 -59.804688 64.484375 -63.109375 C 67.710938 -66.421875 70.375 -70.753906 72.46875 -76.109375 C 74.644531 -81.546875 75.414062 -85.914062 74.78125 -89.21875 C 74.15625 -92.53125 72.253906 -94.1875 69.078125 -94.1875 C 65.972656 -94.1875 62.832031 -92.53125 59.65625 -89.21875 C 56.476562 -85.914062 53.800781 -81.546875 51.625 -76.109375 Z M 51.625 -76.109375 "/></g></g></g><g fill="#1800ad" fill-opacity="1"><g transform="translate(611.82614, 183.284281)"><g><path d="M 1.25 -107.890625 C 1.25 -110.816406 2.421875 -113.09375 4.765625 -114.71875 C 7.117188 -116.351562 10.09375 -117.691406 13.6875 -118.734375 C 17.289062 -119.785156 20.972656 -120.816406 24.734375 -121.828125 C 26.242188 -122.242188 28.148438 -122.765625 30.453125 -123.390625 C 32.753906 -124.023438 35.097656 -124.65625 37.484375 -125.28125 C 39.867188 -125.90625 42.003906 -126.425781 43.890625 -126.84375 C 45.773438 -127.269531 47.140625 -127.484375 47.984375 -127.484375 C 50.328125 -127.484375 52.566406 -126.582031 54.703125 -124.78125 C 56.835938 -122.976562 58.570312 -119.648438 59.90625 -114.796875 C 60.070312 -114.117188 60.34375 -113.570312 60.71875 -113.15625 C 61.101562 -112.738281 61.710938 -112.53125 62.546875 -112.53125 C 63.296875 -112.53125 64.675781 -113.28125 66.6875 -114.78125 C 68.695312 -116.289062 71.289062 -118.03125 74.46875 -120 C 77.65625 -121.96875 81.425781 -123.707031 85.78125 -125.21875 C 90.132812 -126.726562 95.070312 -127.484375 100.59375 -127.484375 C 108.21875 -127.484375 114.375 -125.785156 119.0625 -122.390625 C 123.75 -118.992188 127.203125 -114.320312 129.421875 -108.375 C 131.640625 -102.4375 132.75 -95.617188 132.75 -87.921875 L 132.75 -62.796875 C 132.75 -57.015625 133.3125 -51.695312 134.4375 -46.84375 C 135.570312 -41.988281 136.914062 -37.488281 138.46875 -33.34375 C 140.019531 -29.195312 141.359375 -25.300781 142.484375 -21.65625 C 143.617188 -18.019531 144.1875 -14.523438 144.1875 -11.171875 C 144.1875 -8.160156 143.453125 -5.878906 141.984375 -4.328125 C 140.515625 -2.785156 138.710938 -1.695312 136.578125 -1.0625 C 134.441406 -0.4375 132.328125 -0.101562 130.234375 -0.0625 C 128.140625 -0.0195312 126.425781 0 125.09375 0 L 101.609375 0 C 100.515625 0 99.023438 0 97.140625 0 C 95.265625 0 93.238281 -0.144531 91.0625 -0.4375 C 88.882812 -0.726562 86.789062 -1.25 84.78125 -2 C 82.769531 -2.757812 81.132812 -3.867188 79.875 -5.328125 C 78.625 -6.796875 78 -8.742188 78 -11.171875 C 78 -16.785156 78.601562 -22.414062 79.8125 -28.0625 C 81.03125 -33.71875 82.242188 -39.429688 83.453125 -45.203125 C 84.671875 -50.984375 85.195312 -56.847656 85.03125 -62.796875 C 84.945312 -65.390625 84.734375 -68.128906 84.390625 -71.015625 C 84.054688 -73.910156 83.472656 -76.632812 82.640625 -79.1875 C 81.804688 -81.738281 80.59375 -83.832031 79 -85.46875 C 77.40625 -87.101562 75.351562 -87.921875 72.84375 -87.921875 C 70.164062 -87.921875 68.03125 -87.101562 66.4375 -85.46875 C 64.84375 -83.832031 63.671875 -81.738281 62.921875 -79.1875 C 62.171875 -76.632812 61.691406 -73.890625 61.484375 -70.953125 C 61.273438 -68.023438 61.171875 -65.304688 61.171875 -62.796875 C 61.171875 -57.941406 61.753906 -53.171875 62.921875 -48.484375 C 64.097656 -43.796875 65.4375 -39.273438 66.9375 -34.921875 C 68.445312 -30.566406 69.785156 -26.398438 70.953125 -22.421875 C 72.128906 -18.441406 72.71875 -14.691406 72.71875 -11.171875 C 72.71875 -8.742188 72.085938 -6.796875 70.828125 -5.328125 C 69.578125 -3.867188 67.945312 -2.757812 65.9375 -2 C 63.925781 -1.25 61.832031 -0.726562 59.65625 -0.4375 C 57.476562 -0.144531 55.445312 0 53.5625 0 C 51.675781 0 50.191406 0 49.109375 0 L 21.21875 0 C 19.882812 0 18.171875 -0.0195312 16.078125 -0.0625 C 13.984375 -0.101562 11.867188 -0.4375 9.734375 -1.0625 C 7.597656 -1.695312 5.796875 -2.785156 4.328125 -4.328125 C 2.867188 -5.878906 2.140625 -8.160156 2.140625 -11.171875 C 2.140625 -14.523438 2.703125 -18.019531 3.828125 -21.65625 C 4.960938 -25.300781 6.300781 -29.195312 7.84375 -33.34375 C 9.394531 -37.488281 10.734375 -41.988281 11.859375 -46.84375 C 12.992188 -51.695312 13.5625 -57.015625 13.5625 -62.796875 C 13.5625 -68.328125 13.140625 -73.015625 12.296875 -76.859375 C 11.460938 -80.710938 10.4375 -84.019531 9.21875 -86.78125 C 8.007812 -89.550781 6.796875 -92.019531 5.578125 -94.1875 C 4.367188 -96.363281 3.34375 -98.519531 2.5 -100.65625 C 1.664062 -102.789062 1.25 -105.203125 1.25 -107.890625 Z M 1.25 -107.890625 "/></g></g></g><g fill="#1800ad" fill-opacity="1"><g transform="translate(757.268228, 183.284281)"><g><path d="M 43.078125 1.890625 C 35.285156 1.890625 28.226562 0.238281 21.90625 -3.0625 C 15.59375 -6.375 10.570312 -11.191406 6.84375 -17.515625 C 3.113281 -23.835938 1.25 -31.476562 1.25 -40.4375 C 1.25 -46.382812 2.003906 -52.078125 3.515625 -57.515625 C 5.023438 -62.960938 6.910156 -68.113281 9.171875 -72.96875 C 11.429688 -77.820312 13.671875 -82.34375 15.890625 -86.53125 C 18.109375 -90.71875 19.96875 -94.546875 21.46875 -98.015625 C 22.976562 -101.492188 23.734375 -104.613281 23.734375 -107.375 C 23.734375 -109.550781 23.441406 -111.015625 22.859375 -111.765625 C 22.273438 -112.523438 21.394531 -112.90625 20.21875 -112.90625 C 19.132812 -112.90625 17.796875 -112.695312 16.203125 -112.28125 C 14.609375 -111.863281 12.890625 -111.65625 11.046875 -111.65625 C 7.535156 -111.65625 5.046875 -112.382812 3.578125 -113.84375 C 2.109375 -115.3125 1.375 -117.34375 1.375 -119.9375 C 1.375 -123.125 3.382812 -126.9375 7.40625 -131.375 C 11.425781 -135.8125 16.617188 -140.957031 22.984375 -146.8125 C 26.753906 -150.332031 30.375 -153.804688 33.84375 -157.234375 C 37.320312 -160.671875 40.421875 -163.519531 43.140625 -165.78125 C 45.859375 -168.039062 47.929688 -169.171875 49.359375 -169.171875 C 51.035156 -169.171875 52.269531 -168.601562 53.0625 -167.46875 C 53.851562 -166.34375 54.394531 -164.941406 54.6875 -163.265625 C 54.988281 -161.597656 55.140625 -160.007812 55.140625 -158.5 L 55.140625 -125.59375 L 60.28125 -125.59375 C 62.289062 -125.59375 63.921875 -124.960938 65.171875 -123.703125 C 66.429688 -122.453125 67.0625 -120.820312 67.0625 -118.8125 L 67.0625 -118.4375 C 67.0625 -116.425781 66.429688 -114.789062 65.171875 -113.53125 C 63.921875 -112.28125 62.289062 -111.65625 60.28125 -111.65625 L 55.140625 -111.65625 L 55.140625 -62.796875 C 55.140625 -55.097656 55.722656 -48.816406 56.890625 -43.953125 C 58.066406 -39.097656 59.53125 -35.222656 61.28125 -32.328125 C 63.039062 -29.441406 64.800781 -27.117188 66.5625 -25.359375 C 68.320312 -23.609375 69.785156 -22.039062 70.953125 -20.65625 C 72.128906 -19.28125 72.71875 -17.585938 72.71875 -15.578125 C 72.71875 -12.804688 71.816406 -10.332031 70.015625 -8.15625 C 68.210938 -5.976562 65.847656 -4.132812 62.921875 -2.625 C 59.992188 -1.125 56.789062 0 53.3125 0.75 C 49.84375 1.507812 46.429688 1.890625 43.078125 1.890625 Z M 43.078125 1.890625 "/></g></g></g><g fill="#1800ad" fill-opacity="1"><g transform="translate(831.24522, 183.284281)"><g/></g></g><g fill="#1800ad" fill-opacity="1"><g transform="translate(878.972351, 183.284281)"><g><path d="M 2.515625 -11.171875 C 2.515625 -15.441406 2.890625 -19.359375 3.640625 -22.921875 C 4.390625 -26.484375 5.328125 -30.207031 6.453125 -34.09375 C 7.585938 -37.988281 8.742188 -42.507812 9.921875 -47.65625 C 11.097656 -52.8125 12.0625 -59.03125 12.8125 -66.3125 C 13.5625 -73.59375 13.9375 -82.46875 13.9375 -92.9375 C 13.9375 -101.644531 13.664062 -109.160156 13.125 -115.484375 C 12.582031 -121.804688 11.867188 -127.226562 10.984375 -131.75 C 10.109375 -136.269531 9.1875 -140.203125 8.21875 -143.546875 C 7.257812 -146.898438 6.335938 -149.9375 5.453125 -152.65625 C 4.578125 -155.375 3.867188 -158.070312 3.328125 -160.75 C 2.785156 -163.4375 2.515625 -166.410156 2.515625 -169.671875 C 2.515625 -172.691406 3.242188 -174.972656 4.703125 -176.515625 C 6.171875 -178.066406 7.972656 -179.15625 10.109375 -179.78125 C 12.242188 -180.414062 14.359375 -180.753906 16.453125 -180.796875 C 18.546875 -180.835938 20.265625 -180.859375 21.609375 -180.859375 L 93.0625 -180.859375 C 101.6875 -180.859375 109.328125 -179.117188 115.984375 -175.640625 C 122.640625 -172.171875 127.875 -167.296875 131.6875 -161.015625 C 135.5 -154.734375 137.40625 -147.40625 137.40625 -139.03125 C 137.40625 -135.425781 136.921875 -131.738281 135.953125 -127.96875 C 134.992188 -124.207031 133.40625 -120.585938 131.1875 -117.109375 C 128.96875 -113.640625 126.035156 -110.539062 122.390625 -107.8125 C 118.742188 -105.09375 114.242188 -103.023438 108.890625 -101.609375 C 106.796875 -101.015625 105.75 -100.21875 105.75 -99.21875 C 105.75 -98.550781 106.585938 -97.835938 108.265625 -97.078125 C 109.941406 -96.328125 112.078125 -95.382812 114.671875 -94.25 C 117.265625 -93.125 120.046875 -91.535156 123.015625 -89.484375 C 125.992188 -87.429688 128.78125 -84.769531 131.375 -81.5 C 133.96875 -78.238281 136.097656 -74.140625 137.765625 -69.203125 C 139.441406 -64.265625 140.28125 -58.234375 140.28125 -51.109375 C 140.28125 -46.753906 139.671875 -42.210938 138.453125 -37.484375 C 137.242188 -32.753906 135.320312 -28.171875 132.6875 -23.734375 C 130.050781 -19.296875 126.554688 -15.273438 122.203125 -11.671875 C 117.847656 -8.078125 112.53125 -5.234375 106.25 -3.140625 C 99.96875 -1.046875 92.597656 0 84.140625 0 L 19.59375 0 C 18.25 0 16.632812 -0.0195312 14.75 -0.0625 C 12.875 -0.101562 10.992188 -0.4375 9.109375 -1.0625 C 7.222656 -1.695312 5.648438 -2.785156 4.390625 -4.328125 C 3.140625 -5.878906 2.515625 -8.160156 2.515625 -11.171875 Z M 61.421875 -45.46875 C 61.421875 -41.863281 62.085938 -39.453125 63.421875 -38.234375 C 64.765625 -37.023438 66.609375 -36.421875 68.953125 -36.421875 C 73.054688 -36.421875 76.40625 -37.210938 79 -38.796875 C 81.59375 -40.390625 83.617188 -42.398438 85.078125 -44.828125 C 86.546875 -47.265625 87.570312 -49.78125 88.15625 -52.375 C 88.75 -54.96875 89.046875 -57.269531 89.046875 -59.28125 C 89.046875 -61.289062 88.75 -63.613281 88.15625 -66.25 C 87.570312 -68.882812 86.546875 -71.414062 85.078125 -73.84375 C 83.617188 -76.269531 81.59375 -78.28125 79 -79.875 C 76.40625 -81.46875 73.054688 -82.265625 68.953125 -82.265625 C 66.609375 -82.265625 64.765625 -81.675781 63.421875 -80.5 C 62.085938 -79.332031 61.421875 -76.90625 61.421875 -73.21875 C 61.421875 -72.382812 61.441406 -71.023438 61.484375 -69.140625 C 61.523438 -67.253906 61.566406 -65.367188 61.609375 -63.484375 C 61.648438 -61.597656 61.671875 -60.195312 61.671875 -59.28125 C 61.671875 -58.445312 61.648438 -57.085938 61.609375 -55.203125 C 61.566406 -53.316406 61.523438 -51.453125 61.484375 -49.609375 C 61.441406 -47.765625 61.421875 -46.382812 61.421875 -45.46875 Z M 61.421875 -118.1875 C 61.421875 -115.59375 62.085938 -113.851562 63.421875 -112.96875 C 64.765625 -112.09375 66.609375 -111.65625 68.953125 -111.65625 C 73.054688 -111.65625 76.40625 -112.21875 79 -113.34375 C 81.59375 -114.476562 83.617188 -115.921875 85.078125 -117.671875 C 86.546875 -119.429688 87.570312 -121.234375 88.15625 -123.078125 C 88.75 -124.921875 89.046875 -126.597656 89.046875 -128.109375 C 89.046875 -129.523438 88.75 -131.175781 88.15625 -133.0625 C 87.570312 -134.945312 86.546875 -136.769531 85.078125 -138.53125 C 83.617188 -140.289062 81.59375 -141.734375 79 -142.859375 C 76.40625 -143.992188 73.054688 -144.5625 68.953125 -144.5625 C 66.609375 -144.5625 64.765625 -144.117188 63.421875 -143.234375 C 62.085938 -142.359375 61.421875 -140.625 61.421875 -138.03125 Z M 61.421875 -118.1875 "/></g></g></g><g clip-path="url(#93af73c8c4)"><g fill="#1800ad" fill-opacity="1"><g transform="translate(1019.892991, 183.284281)"><g><path d="M 13.5625 -62.796875 C 13.5625 -68.328125 13.140625 -73.015625 12.296875 -76.859375 C 11.460938 -80.710938 10.4375 -84.019531 9.21875 -86.78125 C 8.007812 -89.550781 6.796875 -92.019531 5.578125 -94.1875 C 4.367188 -96.363281 3.34375 -98.519531 2.5 -100.65625 C 1.664062 -102.789062 1.25 -105.203125 1.25 -107.890625 C 1.25 -110.816406 2.421875 -113.09375 4.765625 -114.71875 C 7.117188 -116.351562 10.09375 -117.691406 13.6875 -118.734375 C 17.289062 -119.785156 20.972656 -120.816406 24.734375 -121.828125 C 26.242188 -122.242188 28.148438 -122.765625 30.453125 -123.390625 C 32.753906 -124.023438 35.097656 -124.65625 37.484375 -125.28125 C 39.867188 -125.90625 42.003906 -126.425781 43.890625 -126.84375 C 45.773438 -127.269531 47.140625 -127.484375 47.984375 -127.484375 C 50.066406 -127.484375 52.132812 -126.726562 54.1875 -125.21875 C 56.238281 -123.707031 57.9375 -121.085938 59.28125 -117.359375 C 60.625 -113.640625 61.296875 -108.429688 61.296875 -101.734375 C 61.296875 -97.296875 61.316406 -92.644531 61.359375 -87.78125 C 61.398438 -82.925781 61.421875 -78.320312 61.421875 -73.96875 C 61.421875 -69.613281 61.421875 -65.890625 61.421875 -62.796875 C 61.421875 -57.441406 61.984375 -52.25 63.109375 -47.21875 C 64.242188 -42.195312 65.582031 -37.46875 67.125 -33.03125 C 68.675781 -28.59375 70.015625 -24.53125 71.140625 -20.84375 C 72.273438 -17.164062 72.84375 -13.941406 72.84375 -11.171875 C 72.84375 -8.160156 72.210938 -5.878906 70.953125 -4.328125 C 69.703125 -2.785156 68.132812 -1.695312 66.25 -1.0625 C 64.363281 -0.4375 62.476562 -0.101562 60.59375 -0.0625 C 58.707031 -0.0195312 57.097656 0 55.765625 0 L 19.34375 0 C 18 0 16.382812 -0.0195312 14.5 -0.0625 C 12.625 -0.101562 10.742188 -0.4375 8.859375 -1.0625 C 6.972656 -1.695312 5.398438 -2.785156 4.140625 -4.328125 C 2.890625 -5.878906 2.265625 -8.160156 2.265625 -11.171875 C 2.265625 -14.523438 2.828125 -18.019531 3.953125 -21.65625 C 5.085938 -25.300781 6.40625 -29.21875 7.90625 -33.40625 C 9.414062 -37.59375 10.734375 -42.09375 11.859375 -46.90625 C 12.992188 -51.71875 13.5625 -57.015625 13.5625 -62.796875 Z M 37.171875 -135.015625 C 35.753906 -135.015625 33.722656 -135.554688 31.078125 -136.640625 C 28.441406 -137.734375 25.640625 -139.242188 22.671875 -141.171875 C 19.703125 -143.097656 16.851562 -145.335938 14.125 -147.890625 C 11.40625 -150.441406 9.1875 -153.242188 7.46875 -156.296875 C 5.75 -159.359375 4.890625 -162.5625 4.890625 -165.90625 C 4.890625 -169.257812 5.625 -172.191406 7.09375 -174.703125 C 8.5625 -177.210938 10.46875 -179.175781 12.8125 -180.59375 C 15.15625 -182.019531 17.707031 -182.734375 20.46875 -182.734375 C 24.320312 -182.734375 27.609375 -181.644531 30.328125 -179.46875 C 33.046875 -177.289062 35.328125 -175.070312 37.171875 -172.8125 C 39.097656 -175.070312 41.421875 -177.289062 44.140625 -179.46875 C 46.867188 -181.644531 50.15625 -182.734375 54 -182.734375 C 56.769531 -182.734375 59.347656 -182.019531 61.734375 -180.59375 C 64.117188 -179.175781 66.019531 -177.210938 67.4375 -174.703125 C 68.863281 -172.191406 69.578125 -169.257812 69.578125 -165.90625 C 69.578125 -162.5625 68.71875 -159.359375 67 -156.296875 C 65.28125 -153.242188 63.0625 -150.441406 60.34375 -147.890625 C 57.625 -145.335938 54.753906 -143.097656 51.734375 -141.171875 C 48.722656 -139.242188 45.921875 -137.734375 43.328125 -136.640625 C 40.734375 -135.554688 38.679688 -135.015625 37.171875 -135.015625 Z M 37.171875 -135.015625 "/></g></g></g></g><g fill="#1800ad" fill-opacity="1"><g transform="translate(1093.995555, 183.284281)"><g><path d="M 43.078125 1.890625 C 35.285156 1.890625 28.226562 0.238281 21.90625 -3.0625 C 15.59375 -6.375 10.570312 -11.191406 6.84375 -17.515625 C 3.113281 -23.835938 1.25 -31.476562 1.25 -40.4375 C 1.25 -46.382812 2.003906 -52.078125 3.515625 -57.515625 C 5.023438 -62.960938 6.910156 -68.113281 9.171875 -72.96875 C 11.429688 -77.820312 13.671875 -82.34375 15.890625 -86.53125 C 18.109375 -90.71875 19.96875 -94.546875 21.46875 -98.015625 C 22.976562 -101.492188 23.734375 -104.613281 23.734375 -107.375 C 23.734375 -109.550781 23.441406 -111.015625 22.859375 -111.765625 C 22.273438 -112.523438 21.394531 -112.90625 20.21875 -112.90625 C 19.132812 -112.90625 17.796875 -112.695312 16.203125 -112.28125 C 14.609375 -111.863281 12.890625 -111.65625 11.046875 -111.65625 C 7.535156 -111.65625 5.046875 -112.382812 3.578125 -113.84375 C 2.109375 -115.3125 1.375 -117.34375 1.375 -119.9375 C 1.375 -123.125 3.382812 -126.9375 7.40625 -131.375 C 11.425781 -135.8125 16.617188 -140.957031 22.984375 -146.8125 C 26.753906 -150.332031 30.375 -153.804688 33.84375 -157.234375 C 37.320312 -160.671875 40.421875 -163.519531 43.140625 -165.78125 C 45.859375 -168.039062 47.929688 -169.171875 49.359375 -169.171875 C 51.035156 -169.171875 52.269531 -168.601562 53.0625 -167.46875 C 53.851562 -166.34375 54.394531 -164.941406 54.6875 -163.265625 C 54.988281 -161.597656 55.140625 -160.007812 55.140625 -158.5 L 55.140625 -125.59375 L 60.28125 -125.59375 C 62.289062 -125.59375 63.921875 -124.960938 65.171875 -123.703125 C 66.429688 -122.453125 67.0625 -120.820312 67.0625 -118.8125 L 67.0625 -118.4375 C 67.0625 -116.425781 66.429688 -114.789062 65.171875 -113.53125 C 63.921875 -112.28125 62.289062 -111.65625 60.28125 -111.65625 L 55.140625 -111.65625 L 55.140625 -62.796875 C 55.140625 -55.097656 55.722656 -48.816406 56.890625 -43.953125 C 58.066406 -39.097656 59.53125 -35.222656 61.28125 -32.328125 C 63.039062 -29.441406 64.800781 -27.117188 66.5625 -25.359375 C 68.320312 -23.609375 69.785156 -22.039062 70.953125 -20.65625 C 72.128906 -19.28125 72.71875 -17.585938 72.71875 -15.578125 C 72.71875 -12.804688 71.816406 -10.332031 70.015625 -8.15625 C 68.210938 -5.976562 65.847656 -4.132812 62.921875 -2.625 C 59.992188 -1.125 56.789062 0 53.3125 0.75 C 49.84375 1.507812 46.429688 1.890625 43.078125 1.890625 Z M 43.078125 1.890625 "/></g></g></g><g fill="#1800ad" fill-opacity="1"><g transform="translate(1167.972547, 183.284281)"><g><path d="M 3.140625 -62.796875 C 3.140625 -70.753906 4.5 -78.582031 7.21875 -86.28125 C 9.9375 -93.988281 14.078125 -100.9375 19.640625 -107.125 C 25.210938 -113.320312 32.25 -118.265625 40.75 -121.953125 C 49.25 -125.640625 59.316406 -127.484375 70.953125 -127.484375 C 77.398438 -127.484375 83.597656 -126.664062 89.546875 -125.03125 C 95.492188 -123.394531 100.789062 -120.921875 105.4375 -117.609375 C 110.082031 -114.304688 113.765625 -110.1875 116.484375 -105.25 C 119.203125 -100.3125 120.5625 -94.535156 120.5625 -87.921875 C 120.5625 -80.628906 119.453125 -74.300781 117.234375 -68.9375 C 115.015625 -63.582031 112.039062 -59.0625 108.3125 -55.375 C 104.59375 -51.695312 100.472656 -48.664062 95.953125 -46.28125 C 91.429688 -43.894531 86.867188 -41.988281 82.265625 -40.5625 C 77.910156 -39.226562 74.078125 -38.601562 70.765625 -38.6875 C 67.460938 -38.769531 64.847656 -38.8125 62.921875 -38.8125 C 61.835938 -38.8125 61.019531 -38.707031 60.46875 -38.5 C 59.925781 -38.289062 59.65625 -37.804688 59.65625 -37.046875 C 59.65625 -35.710938 60.382812 -34.625 61.84375 -33.78125 C 63.3125 -32.945312 65.070312 -32.335938 67.125 -31.953125 C 69.175781 -31.578125 71.039062 -31.390625 72.71875 -31.390625 C 77.238281 -31.390625 81.046875 -31.957031 84.140625 -33.09375 C 87.242188 -34.226562 89.96875 -35.503906 92.3125 -36.921875 C 94.65625 -38.347656 96.914062 -39.625 99.09375 -40.75 C 101.269531 -41.882812 103.65625 -42.453125 106.25 -42.453125 C 109.09375 -42.453125 111.539062 -41.757812 113.59375 -40.375 C 115.644531 -39 117.316406 -37.242188 118.609375 -35.109375 C 119.910156 -32.972656 120.875 -30.773438 121.5 -28.515625 C 122.132812 -26.253906 122.453125 -24.203125 122.453125 -22.359375 C 122.453125 -18.585938 120.628906 -14.835938 116.984375 -11.109375 C 113.347656 -7.390625 107.738281 -4.289062 100.15625 -1.8125 C 92.582031 0.65625 82.847656 1.890625 70.953125 1.890625 C 59.898438 1.890625 50.164062 0.0664062 41.75 -3.578125 C 33.34375 -7.222656 26.269531 -12.140625 20.53125 -18.328125 C 14.800781 -24.523438 10.46875 -31.472656 7.53125 -39.171875 C 4.601562 -46.878906 3.140625 -54.753906 3.140625 -62.796875 Z M 51.625 -76.109375 C 49.53125 -70.753906 48.773438 -66.421875 49.359375 -63.109375 C 49.941406 -59.804688 51.785156 -58.15625 54.890625 -58.15625 C 58.066406 -58.15625 61.265625 -59.804688 64.484375 -63.109375 C 67.710938 -66.421875 70.375 -70.753906 72.46875 -76.109375 C 74.644531 -81.546875 75.414062 -85.914062 74.78125 -89.21875 C 74.15625 -92.53125 72.253906 -94.1875 69.078125 -94.1875 C 65.972656 -94.1875 62.832031 -92.53125 59.65625 -89.21875 C 56.476562 -85.914062 53.800781 -81.546875 51.625 -76.109375 Z M 51.625 -76.109375 "/></g></g></g></g></g><g clip-path="url(#f0e6ae599c)"><g clip-path="url(#8669da8f60)"><g clip-path="url(#57f03a6db4)"><g transform="matrix(1, 0, 0, 1, 289, 768)"><g clip-path="url(#fe30034d00)"><g clip-path="url(#693ba3bbed)"><g clip-path="url(#a22a679dc1)"><g clip-path="url(#2e13c24e51)"><path fill="#ffffff" d="M -12.425781 25.234375 L 46.179688 -12.949219 L 84.363281 45.65625 L 25.757812 83.839844 Z M -12.425781 25.234375 " fill-opacity="1" fill-rule="nonzero"/></g></g></g></g></g></g></g></g><g clip-path="url(#92d46f9cb5)"><g clip-path="url(#2aa9d126a9)"><g clip-path="url(#dc470e9c1c)"><g transform="matrix(1, 0, 0, 1, 460, 661)"><g clip-path="url(#1d4a4d03d7)"><g clip-path="url(#0f1a4543d7)"><g clip-path="url(#1b1b218e04)"><g clip-path="url(#2a0a2315ba)"><path fill="#ffffff" d="M -13.152344 25.335938 L 45.453125 -12.847656 L 83.636719 45.757812 L 25.03125 83.941406 Z M -13.152344 25.335938 " fill-opacity="1" fill-rule="nonzero"/></g></g></g></g></g></g></g></g><g clip-path="url(#997cdde104)"><g clip-path="url(#fb29041355)"><g clip-path="url(#5515ac3e03)"><g transform="matrix(1, 0, 0, 1, 798, 673)"><g clip-path="url(#2706b6f9f6)"><g clip-path="url(#4cbd3e004f)"><g clip-path="url(#549ec1cd8e)"><g clip-path="url(#fb3800fcf4)"><path fill="#ffffff" d="M -8.335938 16.832031 L 30.222656 -8.289062 L 55.34375 30.269531 L 16.785156 55.390625 Z M -8.335938 16.832031 " fill-opacity="1" fill-rule="nonzero"/></g></g></g></g></g></g></g></g><g clip-path="url(#8ba8a1cd03)"><g clip-path="url(#a7dfd17af3)"><g clip-path="url(#12c1ecc987)"><g transform="matrix(1, 0, 0, 1, 1060, 781)"><g clip-path="url(#aab42d61b9)"><g clip-path="url(#43a55eff50)"><g clip-path="url(#312e6fc3ae)"><g clip-path="url(#ed298ae9d1)"><path fill="#ffffff" d="M -8.667969 17.027344 L 29.890625 -8.097656 L 55.011719 30.460938 L 16.453125 55.585938 Z M -8.667969 17.027344 " fill-opacity="1" fill-rule="nonzero"/></g></g></g></g></g></g></g></g><g clip-path="url(#25eba3cfc4)"><g clip-path="url(#9bd1e545a1)"><g clip-path="url(#db4e79af92)"><g transform="matrix(1, 0, 0, 1, 1349, 673)"><g clip-path="url(#63ff09ca08)"><g clip-path="url(#ed336d3779)"><g clip-path="url(#8ec267d66d)"><g clip-path="url(#a459c998f3)"><path fill="#ffffff" d="M -8.40625 16.832031 L 30.152344 -8.289062 L 55.273438 30.269531 L 16.714844 55.390625 Z M -8.40625 16.832031 " fill-opacity="1" fill-rule="nonzero"/></g></g></g></g></g></g></g></g></svg>