<svg xmlns="http://www.w3.org/2000/svg" xmlns:xlink="http://www.w3.org/1999/xlink" width="1920" zoomAndPan="magnify" viewBox="0 0 1440 809.999993" height="1080" preserveAspectRatio="xMidYMid meet" version="1.0"><defs><g/><clipPath id="3f17c53284"><path d="M 1 0.601562 L 109 0.601562 L 109 143 L 1 143 Z M 1 0.601562 " clip-rule="nonzero"/></clipPath><clipPath id="17ef38b020"><path d="M 784 0.601562 L 840 0.601562 L 840 141 L 784 141 Z M 784 0.601562 " clip-rule="nonzero"/></clipPath><clipPath id="d2eae443aa"><rect x="0" width="993" y="0" height="187"/></clipPath><clipPath id="5e071b7262"><path d="M 367 419 L 421 419 L 421 473 L 367 473 Z M 367 419 " clip-rule="nonzero"/></clipPath><clipPath id="88d9f652aa"><path d="M 356.738281 438.171875 L 401.707031 408.875 L 431.007812 453.84375 L 386.039062 483.140625 Z M 356.738281 438.171875 " clip-rule="nonzero"/></clipPath><clipPath id="7706dfb964"><path d="M 379.222656 423.523438 C 366.804688 431.613281 363.296875 448.238281 371.386719 460.65625 C 379.480469 473.074219 396.105469 476.582031 408.523438 468.492188 C 420.941406 460.402344 424.449219 443.777344 416.355469 431.359375 C 408.265625 418.941406 391.640625 415.433594 379.222656 423.523438 Z M 379.222656 423.523438 " clip-rule="nonzero"/></clipPath><clipPath id="ad9cc69cfe"><path d="M 0 0 L 54 0 L 54 54 L 0 54 Z M 0 0 " clip-rule="nonzero"/></clipPath><clipPath id="b86ec70f4b"><path d="M -10.261719 19.171875 L 34.707031 -10.125 L 64.007812 34.84375 L 19.039062 64.140625 Z M -10.261719 19.171875 " clip-rule="nonzero"/></clipPath><clipPath id="b7abd6ba75"><path d="M 12.222656 4.523438 C -0.195312 12.613281 -3.703125 29.238281 4.386719 41.65625 C 12.480469 54.074219 29.105469 57.582031 41.523438 49.492188 C 53.941406 41.402344 57.449219 24.777344 49.355469 12.359375 C 41.265625 -0.0585938 24.640625 -3.566406 12.222656 4.523438 Z M 12.222656 4.523438 " clip-rule="nonzero"/></clipPath><clipPath id="e96768b78a"><rect x="0" width="54" y="0" height="54"/></clipPath><clipPath id="44b290750c"><path d="M 497 337 L 552 337 L 552 391 L 497 391 Z M 497 337 " clip-rule="nonzero"/></clipPath><clipPath id="22f5d669d1"><path d="M 487.390625 356.148438 L 532.359375 326.851562 L 561.660156 371.820312 L 516.6875 401.117188 Z M 487.390625 356.148438 " clip-rule="nonzero"/></clipPath><clipPath id="ae2481abb2"><path d="M 509.875 341.5 C 497.457031 349.589844 493.949219 366.214844 502.039062 378.632812 C 510.128906 391.050781 526.757812 394.558594 539.171875 386.46875 C 551.589844 378.378906 555.097656 361.753906 547.007812 349.335938 C 538.917969 336.917969 522.292969 333.410156 509.875 341.5 Z M 509.875 341.5 " clip-rule="nonzero"/></clipPath><clipPath id="808d7cdd08"><path d="M 0 0 L 55 0 L 55 54 L 0 54 Z M 0 0 " clip-rule="nonzero"/></clipPath><clipPath id="2b0458d06e"><path d="M -9.609375 19.148438 L 35.359375 -10.148438 L 64.660156 34.820312 L 19.6875 64.117188 Z M -9.609375 19.148438 " clip-rule="nonzero"/></clipPath><clipPath id="8a5a3b2598"><path d="M 12.875 4.5 C 0.457031 12.589844 -3.050781 29.214844 5.039062 41.632812 C 13.128906 54.050781 29.757812 57.558594 42.171875 49.46875 C 54.589844 41.378906 58.097656 24.753906 50.007812 12.335938 C 41.917969 -0.0820312 25.292969 -3.589844 12.875 4.5 Z M 12.875 4.5 " clip-rule="nonzero"/></clipPath><clipPath id="76895fad82"><rect x="0" width="55" y="0" height="54"/></clipPath><clipPath id="dd9d170708"><path d="M 757 346 L 793 346 L 793 382 L 757 382 Z M 757 346 " clip-rule="nonzero"/></clipPath><clipPath id="3bc4c1fda8"><path d="M 750.433594 358.832031 L 780.019531 339.558594 L 799.296875 369.144531 L 769.710938 388.417969 Z M 750.433594 358.832031 " clip-rule="nonzero"/></clipPath><clipPath id="c65f147f42"><path d="M 765.226562 349.195312 C 757.058594 354.519531 754.75 365.457031 760.070312 373.625 C 765.394531 381.796875 776.332031 384.105469 784.503906 378.78125 C 792.671875 373.457031 794.980469 362.519531 789.65625 354.351562 C 784.335938 346.179688 773.398438 343.871094 765.226562 349.195312 Z M 765.226562 349.195312 " clip-rule="nonzero"/></clipPath><clipPath id="a7c351f232"><path d="M 0 0 L 36 0 L 36 36 L 0 36 Z M 0 0 " clip-rule="nonzero"/></clipPath><clipPath id="c11784c411"><path d="M -6.566406 12.832031 L 23.019531 -6.441406 L 42.296875 23.144531 L 12.710938 42.417969 Z M -6.566406 12.832031 " clip-rule="nonzero"/></clipPath><clipPath id="92712d52c2"><path d="M 8.226562 3.195312 C 0.0585938 8.519531 -2.25 19.457031 3.070312 27.625 C 8.394531 35.796875 19.332031 38.105469 27.503906 32.78125 C 35.671875 27.457031 37.980469 16.519531 32.65625 8.351562 C 27.335938 0.179688 16.398438 -2.128906 8.226562 3.195312 Z M 8.226562 3.195312 " clip-rule="nonzero"/></clipPath><clipPath id="9c14907c0f"><rect x="0" width="36" y="0" height="36"/></clipPath><clipPath id="80d83a254d"><path d="M 957 429 L 994 429 L 994 465 L 957 465 Z M 957 429 " clip-rule="nonzero"/></clipPath><clipPath id="695258a7d8"><path d="M 951.214844 441.851562 L 980.800781 422.574219 L 1000.078125 452.160156 L 970.492188 471.4375 Z M 951.214844 441.851562 " clip-rule="nonzero"/></clipPath><clipPath id="2c5eac53a1"><path d="M 966.007812 432.210938 C 957.835938 437.535156 955.53125 448.472656 960.851562 456.644531 C 966.175781 464.8125 977.113281 467.121094 985.285156 461.796875 C 993.453125 456.476562 995.761719 445.535156 990.4375 437.367188 C 985.117188 429.195312 974.175781 426.890625 966.007812 432.210938 Z M 966.007812 432.210938 " clip-rule="nonzero"/></clipPath><clipPath id="33114fa560"><path d="M 0 0 L 37 0 L 37 36 L 0 36 Z M 0 0 " clip-rule="nonzero"/></clipPath><clipPath id="97caaa4c55"><path d="M -5.785156 12.851562 L 23.800781 -6.425781 L 43.078125 23.160156 L 13.492188 42.4375 Z M -5.785156 12.851562 " clip-rule="nonzero"/></clipPath><clipPath id="15b4653bd2"><path d="M 9.007812 3.210938 C 0.835938 8.535156 -1.46875 19.472656 3.851562 27.644531 C 9.175781 35.8125 20.113281 38.121094 28.285156 32.796875 C 36.453125 27.476562 38.761719 16.535156 33.4375 8.367188 C 28.117188 0.195312 17.175781 -2.109375 9.007812 3.210938 Z M 9.007812 3.210938 " clip-rule="nonzero"/></clipPath><clipPath id="c63bcc58ab"><rect x="0" width="37" y="0" height="36"/></clipPath><clipPath id="e6f6ece656"><path d="M 1179 346 L 1216 346 L 1216 382 L 1179 382 Z M 1179 346 " clip-rule="nonzero"/></clipPath><clipPath id="91290dcb01"><path d="M 1173.164062 358.832031 L 1202.75 339.558594 L 1222.027344 369.144531 L 1192.441406 388.417969 Z M 1173.164062 358.832031 " clip-rule="nonzero"/></clipPath><clipPath id="742392c9d8"><path d="M 1187.957031 349.195312 C 1179.789062 354.519531 1177.480469 365.457031 1182.804688 373.625 C 1188.125 381.796875 1199.066406 384.105469 1207.234375 378.78125 C 1215.40625 373.457031 1217.710938 362.519531 1212.390625 354.351562 C 1207.066406 346.179688 1196.128906 343.871094 1187.957031 349.195312 Z M 1187.957031 349.195312 " clip-rule="nonzero"/></clipPath><clipPath id="8bef863ae2"><path d="M 0 0 L 37 0 L 37 36 L 0 36 Z M 0 0 " clip-rule="nonzero"/></clipPath><clipPath id="ac5557d7e2"><path d="M -5.835938 12.832031 L 23.75 -6.441406 L 43.027344 23.144531 L 13.441406 42.417969 Z M -5.835938 12.832031 " clip-rule="nonzero"/></clipPath><clipPath id="b7a480d501"><path d="M 8.957031 3.195312 C 0.789062 8.519531 -1.519531 19.457031 3.804688 27.625 C 9.125 35.796875 20.066406 38.105469 28.234375 32.78125 C 36.40625 27.457031 38.710938 16.519531 33.390625 8.351562 C 28.066406 0.179688 17.128906 -2.128906 8.957031 3.195312 Z M 8.957031 3.195312 " clip-rule="nonzero"/></clipPath><clipPath id="8e1a70192a"><rect x="0" width="37" y="0" height="36"/></clipPath></defs><g transform="matrix(1, 0, 0, 1, 223, 315)"><g clip-path="url(#d2eae443aa)"><g clip-path="url(#3f17c53284)"><g fill="#1800ad" fill-opacity="1"><g transform="translate(2.800863, 140.860325)"><g><path d="M 57.53125 1.453125 C 48.476562 1.453125 40.65625 0.265625 34.0625 -2.109375 C 27.476562 -4.492188 21.9375 -7.867188 17.4375 -12.234375 C 12.945312 -16.609375 9.351562 -21.734375 6.65625 -27.609375 C 3.957031 -33.492188 2.007812 -39.984375 0.8125 -47.078125 C -0.375 -54.179688 -0.96875 -61.617188 -0.96875 -69.390625 C -0.96875 -77.160156 -0.375 -84.59375 0.8125 -91.6875 C 2.007812 -98.789062 3.957031 -105.28125 6.65625 -111.15625 C 9.351562 -117.039062 12.945312 -122.164062 17.4375 -126.53125 C 21.9375 -130.90625 27.476562 -134.28125 34.0625 -136.65625 C 40.65625 -139.03125 48.476562 -140.21875 57.53125 -140.21875 C 66.53125 -140.21875 74.097656 -139.140625 80.234375 -136.984375 C 86.367188 -134.835938 91.265625 -132 94.921875 -128.46875 C 98.585938 -124.9375 101.238281 -121.082031 102.875 -116.90625 C 104.519531 -112.726562 105.34375 -108.613281 105.34375 -104.5625 C 105.34375 -101.03125 104.648438 -97.800781 103.265625 -94.875 C 101.878906 -91.957031 100.0625 -89.4375 97.8125 -87.3125 C 95.570312 -85.195312 93.066406 -83.5625 90.296875 -82.40625 C 87.535156 -81.25 84.804688 -80.671875 82.109375 -80.671875 C 78.640625 -80.671875 75.632812 -81.828125 73.09375 -84.140625 C 70.5625 -86.453125 69.296875 -90.144531 69.296875 -95.21875 C 69.296875 -98.945312 68.988281 -101.96875 68.375 -104.28125 C 67.769531 -106.59375 66.628906 -108.273438 64.953125 -109.328125 C 63.285156 -110.390625 60.8125 -110.921875 57.53125 -110.921875 C 53.488281 -110.921875 50.132812 -109.84375 47.46875 -107.6875 C 44.800781 -105.539062 42.695312 -102.554688 41.15625 -98.734375 C 39.613281 -94.910156 38.503906 -90.492188 37.828125 -85.484375 C 37.148438 -80.472656 36.8125 -75.109375 36.8125 -69.390625 C 36.8125 -63.671875 37.148438 -58.304688 37.828125 -53.296875 C 38.503906 -48.285156 39.613281 -43.867188 41.15625 -40.046875 C 42.695312 -36.222656 44.800781 -33.234375 47.46875 -31.078125 C 50.132812 -28.929688 53.488281 -27.859375 57.53125 -27.859375 C 60.8125 -27.859375 63.285156 -28.382812 64.953125 -29.4375 C 66.628906 -30.5 67.769531 -32.1875 68.375 -34.5 C 68.988281 -36.8125 69.296875 -39.832031 69.296875 -43.5625 C 69.296875 -48.695312 70.5625 -52.40625 73.09375 -54.6875 C 75.632812 -56.96875 78.640625 -58.109375 82.109375 -58.109375 C 84.804688 -58.109375 87.535156 -57.53125 90.296875 -56.375 C 93.066406 -55.21875 95.570312 -53.578125 97.8125 -51.453125 C 100.0625 -49.335938 101.878906 -46.816406 103.265625 -43.890625 C 104.648438 -40.972656 105.34375 -37.75 105.34375 -34.21875 C 105.34375 -30.164062 104.519531 -26.050781 102.875 -21.875 C 101.238281 -17.695312 98.585938 -13.84375 94.921875 -10.3125 C 91.265625 -6.78125 86.367188 -3.9375 80.234375 -1.78125 C 74.097656 0.375 66.53125 1.453125 57.53125 1.453125 Z M 57.53125 1.453125 "/></g></g></g></g><g fill="#1800ad" fill-opacity="1"><g transform="translate(111.026304, 140.860325)"><g><path d="M 48.09375 1.453125 C 38.457031 1.453125 30.234375 -0.617188 23.421875 -4.765625 C 16.609375 -8.910156 11.398438 -14.707031 7.796875 -22.15625 C 4.203125 -29.613281 2.40625 -38.320312 2.40625 -48.28125 C 2.40625 -58.175781 4.203125 -66.832031 7.796875 -74.25 C 11.398438 -81.675781 16.609375 -87.460938 23.421875 -91.609375 C 30.234375 -95.753906 38.457031 -97.828125 48.09375 -97.828125 C 57.726562 -97.828125 65.953125 -95.753906 72.765625 -91.609375 C 79.578125 -87.460938 84.78125 -81.675781 88.375 -74.25 C 91.96875 -66.832031 93.765625 -58.175781 93.765625 -48.28125 C 93.765625 -38.320312 91.96875 -29.613281 88.375 -22.15625 C 84.78125 -14.707031 79.578125 -8.910156 72.765625 -4.765625 C 65.953125 -0.617188 57.726562 1.453125 48.09375 1.453125 Z M 39.515625 -48.09375 C 39.515625 -40.894531 40.300781 -35.078125 41.875 -30.640625 C 43.445312 -26.210938 45.519531 -24 48.09375 -24 C 50.664062 -24 52.738281 -26.210938 54.3125 -30.640625 C 55.882812 -35.078125 56.671875 -40.894531 56.671875 -48.09375 C 56.671875 -55.351562 55.882812 -61.195312 54.3125 -65.625 C 52.738281 -70.0625 50.664062 -72.28125 48.09375 -72.28125 C 45.519531 -72.28125 43.445312 -70.0625 41.875 -65.625 C 40.300781 -61.195312 39.515625 -55.351562 39.515625 -48.09375 Z M 39.515625 -48.09375 "/></g></g></g><g fill="#1800ad" fill-opacity="1"><g transform="translate(207.205286, 140.860325)"><g><path d="M 0.96875 -82.78125 C 0.96875 -85.03125 1.863281 -86.78125 3.65625 -88.03125 C 5.457031 -89.289062 7.738281 -90.320312 10.5 -91.125 C 13.269531 -91.925781 16.097656 -92.710938 18.984375 -93.484375 C 20.140625 -93.804688 21.597656 -94.207031 23.359375 -94.6875 C 25.128906 -95.164062 26.929688 -95.644531 28.765625 -96.125 C 30.597656 -96.613281 32.234375 -97.019531 33.671875 -97.34375 C 35.117188 -97.664062 36.164062 -97.828125 36.8125 -97.828125 C 38.613281 -97.828125 40.332031 -97.132812 41.96875 -95.75 C 43.601562 -94.363281 44.9375 -91.8125 45.96875 -88.09375 C 46.09375 -87.570312 46.300781 -87.148438 46.59375 -86.828125 C 46.882812 -86.515625 47.351562 -86.359375 48 -86.359375 C 48.570312 -86.359375 49.628906 -86.9375 51.171875 -88.09375 C 52.710938 -89.25 54.703125 -90.578125 57.140625 -92.078125 C 59.585938 -93.585938 62.476562 -94.921875 65.8125 -96.078125 C 69.15625 -97.242188 72.953125 -97.828125 77.203125 -97.828125 C 83.046875 -97.828125 87.765625 -96.523438 91.359375 -93.921875 C 94.960938 -91.316406 97.613281 -87.734375 99.3125 -83.171875 C 101.019531 -78.609375 101.875 -73.375 101.875 -67.46875 L 101.875 -48.1875 C 101.875 -43.75 102.304688 -39.664062 103.171875 -35.9375 C 104.035156 -32.21875 105.0625 -28.765625 106.25 -25.578125 C 107.4375 -22.398438 108.460938 -19.414062 109.328125 -16.625 C 110.203125 -13.832031 110.640625 -11.148438 110.640625 -8.578125 C 110.640625 -6.265625 110.078125 -4.515625 108.953125 -3.328125 C 107.828125 -2.140625 106.441406 -1.300781 104.796875 -0.8125 C 103.160156 -0.332031 101.539062 -0.078125 99.9375 -0.046875 C 98.332031 -0.015625 97.015625 0 95.984375 0 L 77.96875 0 C 77.132812 0 75.992188 0 74.546875 0 C 73.097656 0 71.535156 -0.109375 69.859375 -0.328125 C 68.191406 -0.554688 66.585938 -0.957031 65.046875 -1.53125 C 63.503906 -2.113281 62.25 -2.96875 61.28125 -4.09375 C 60.320312 -5.21875 59.84375 -6.710938 59.84375 -8.578125 C 59.84375 -12.878906 60.304688 -17.195312 61.234375 -21.53125 C 62.171875 -25.875 63.101562 -30.257812 64.03125 -34.6875 C 64.96875 -39.125 65.375 -43.625 65.25 -48.1875 C 65.1875 -50.175781 65.023438 -52.28125 64.765625 -54.5 C 64.503906 -56.71875 64.050781 -58.804688 63.40625 -60.765625 C 62.769531 -62.722656 61.835938 -64.328125 60.609375 -65.578125 C 59.390625 -66.835938 57.816406 -67.46875 55.890625 -67.46875 C 53.835938 -67.46875 52.203125 -66.835938 50.984375 -65.578125 C 49.765625 -64.328125 48.863281 -62.722656 48.28125 -60.765625 C 47.707031 -58.804688 47.335938 -56.703125 47.171875 -54.453125 C 47.015625 -52.203125 46.9375 -50.113281 46.9375 -48.1875 C 46.9375 -44.457031 47.382812 -40.789062 48.28125 -37.1875 C 49.1875 -33.59375 50.21875 -30.125 51.375 -26.78125 C 52.53125 -23.445312 53.554688 -20.253906 54.453125 -17.203125 C 55.347656 -14.148438 55.796875 -11.273438 55.796875 -8.578125 C 55.796875 -6.710938 55.3125 -5.21875 54.34375 -4.09375 C 53.382812 -2.96875 52.132812 -2.113281 50.59375 -1.53125 C 49.050781 -0.957031 47.441406 -0.554688 45.765625 -0.328125 C 44.097656 -0.109375 42.539062 0 41.09375 0 C 39.65625 0 38.519531 0 37.6875 0 L 16.28125 0 C 15.257812 0 13.941406 -0.015625 12.328125 -0.046875 C 10.722656 -0.078125 9.101562 -0.332031 7.46875 -0.8125 C 5.832031 -1.300781 4.453125 -2.140625 3.328125 -3.328125 C 2.203125 -4.515625 1.640625 -6.265625 1.640625 -8.578125 C 1.640625 -11.148438 2.070312 -13.832031 2.9375 -16.625 C 3.800781 -19.414062 4.828125 -22.398438 6.015625 -25.578125 C 7.210938 -28.765625 8.242188 -32.21875 9.109375 -35.9375 C 9.972656 -39.664062 10.40625 -43.75 10.40625 -48.1875 C 10.40625 -52.425781 10.082031 -56.023438 9.4375 -58.984375 C 8.800781 -61.941406 8.015625 -64.476562 7.078125 -66.59375 C 6.148438 -68.71875 5.21875 -70.613281 4.28125 -72.28125 C 3.351562 -73.945312 2.566406 -75.597656 1.921875 -77.234375 C 1.285156 -78.878906 0.96875 -80.726562 0.96875 -82.78125 Z M 0.96875 -82.78125 "/></g></g></g><g fill="#1800ad" fill-opacity="1"><g transform="translate(318.803727, 140.860325)"><g><path d="M 33.0625 1.453125 C 27.082031 1.453125 21.664062 0.179688 16.8125 -2.359375 C 11.96875 -4.898438 8.113281 -8.59375 5.25 -13.4375 C 2.394531 -18.289062 0.96875 -24.15625 0.96875 -31.03125 C 0.96875 -35.59375 1.546875 -39.960938 2.703125 -44.140625 C 3.859375 -48.316406 5.300781 -52.265625 7.03125 -55.984375 C 8.769531 -59.710938 10.488281 -63.179688 12.1875 -66.390625 C 13.894531 -69.609375 15.328125 -72.550781 16.484375 -75.21875 C 17.640625 -77.882812 18.21875 -80.28125 18.21875 -82.40625 C 18.21875 -84.070312 17.988281 -85.191406 17.53125 -85.765625 C 17.082031 -86.347656 16.410156 -86.640625 15.515625 -86.640625 C 14.679688 -86.640625 13.648438 -86.476562 12.421875 -86.15625 C 11.203125 -85.832031 9.890625 -85.671875 8.484375 -85.671875 C 5.785156 -85.671875 3.875 -86.234375 2.75 -87.359375 C 1.625 -88.484375 1.0625 -90.039062 1.0625 -92.03125 C 1.0625 -94.476562 2.601562 -97.40625 5.6875 -100.8125 C 8.769531 -104.21875 12.753906 -108.164062 17.640625 -112.65625 C 20.523438 -115.351562 23.300781 -118.019531 25.96875 -120.65625 C 28.632812 -123.289062 31.007812 -125.472656 33.09375 -127.203125 C 35.1875 -128.941406 36.78125 -129.8125 37.875 -129.8125 C 39.15625 -129.8125 40.101562 -129.378906 40.71875 -128.515625 C 41.332031 -127.648438 41.75 -126.570312 41.96875 -125.28125 C 42.195312 -124 42.3125 -122.78125 42.3125 -121.625 L 42.3125 -96.375 L 46.265625 -96.375 C 47.804688 -96.375 49.054688 -95.890625 50.015625 -94.921875 C 50.984375 -93.960938 51.46875 -92.710938 51.46875 -91.171875 L 51.46875 -90.875 C 51.46875 -89.332031 50.984375 -88.078125 50.015625 -87.109375 C 49.054688 -86.148438 47.804688 -85.671875 46.265625 -85.671875 L 42.3125 -85.671875 L 42.3125 -48.1875 C 42.3125 -42.28125 42.757812 -37.460938 43.65625 -33.734375 C 44.550781 -30.003906 45.675781 -27.03125 47.03125 -24.8125 C 48.382812 -22.59375 49.734375 -20.804688 51.078125 -19.453125 C 52.429688 -18.109375 53.554688 -16.90625 54.453125 -15.84375 C 55.347656 -14.789062 55.796875 -13.492188 55.796875 -11.953125 C 55.796875 -9.828125 55.101562 -7.929688 53.71875 -6.265625 C 52.34375 -4.597656 50.53125 -3.1875 48.28125 -2.03125 C 46.03125 -0.875 43.570312 -0.00390625 40.90625 0.578125 C 38.238281 1.160156 35.625 1.453125 33.0625 1.453125 Z M 33.0625 1.453125 "/></g></g></g><g fill="#1800ad" fill-opacity="1"><g transform="translate(375.566686, 140.860325)"><g><path d="M 2.40625 -48.1875 C 2.40625 -54.289062 3.445312 -60.296875 5.53125 -66.203125 C 7.625 -72.117188 10.804688 -77.453125 15.078125 -82.203125 C 19.347656 -86.960938 24.742188 -90.753906 31.265625 -93.578125 C 37.796875 -96.410156 45.523438 -97.828125 54.453125 -97.828125 C 59.398438 -97.828125 64.15625 -97.195312 68.71875 -95.9375 C 73.28125 -94.6875 77.34375 -92.789062 80.90625 -90.25 C 84.46875 -87.71875 87.289062 -84.554688 89.375 -80.765625 C 91.46875 -76.972656 92.515625 -72.539062 92.515625 -67.46875 C 92.515625 -61.875 91.660156 -57.019531 89.953125 -52.90625 C 88.253906 -48.789062 85.972656 -45.320312 83.109375 -42.5 C 80.253906 -39.675781 77.09375 -37.347656 73.625 -35.515625 C 70.15625 -33.679688 66.65625 -32.21875 63.125 -31.125 C 59.78125 -30.101562 56.835938 -29.625 54.296875 -29.6875 C 51.765625 -29.75 49.757812 -29.78125 48.28125 -29.78125 C 47.445312 -29.78125 46.820312 -29.695312 46.40625 -29.53125 C 45.988281 -29.375 45.78125 -29.007812 45.78125 -28.4375 C 45.78125 -27.40625 46.34375 -26.566406 47.46875 -25.921875 C 48.59375 -25.285156 49.941406 -24.820312 51.515625 -24.53125 C 53.085938 -24.238281 54.515625 -24.09375 55.796875 -24.09375 C 59.265625 -24.09375 62.1875 -24.523438 64.5625 -25.390625 C 66.945312 -26.265625 69.035156 -27.242188 70.828125 -28.328125 C 72.628906 -29.421875 74.363281 -30.398438 76.03125 -31.265625 C 77.707031 -32.140625 79.539062 -32.578125 81.53125 -32.578125 C 83.71875 -32.578125 85.597656 -32.046875 87.171875 -30.984375 C 88.742188 -29.921875 90.023438 -28.570312 91.015625 -26.9375 C 92.015625 -25.300781 92.753906 -23.613281 93.234375 -21.875 C 93.722656 -20.144531 93.96875 -18.570312 93.96875 -17.15625 C 93.96875 -14.257812 92.566406 -11.378906 89.765625 -8.515625 C 86.972656 -5.660156 82.671875 -3.285156 76.859375 -1.390625 C 71.046875 0.503906 63.578125 1.453125 54.453125 1.453125 C 45.972656 1.453125 38.503906 0.0546875 32.046875 -2.734375 C 25.585938 -5.535156 20.15625 -9.3125 15.75 -14.0625 C 11.351562 -18.820312 8.03125 -24.15625 5.78125 -30.0625 C 3.53125 -35.976562 2.40625 -42.019531 2.40625 -48.1875 Z M 39.609375 -58.40625 C 38.003906 -54.289062 37.425781 -50.960938 37.875 -48.421875 C 38.320312 -45.890625 39.734375 -44.625 42.109375 -44.625 C 44.554688 -44.625 47.015625 -45.890625 49.484375 -48.421875 C 51.960938 -50.960938 54.003906 -54.289062 55.609375 -58.40625 C 57.273438 -62.582031 57.867188 -65.9375 57.390625 -68.46875 C 56.910156 -71.007812 55.445312 -72.28125 53 -72.28125 C 50.625 -72.28125 48.210938 -71.007812 45.765625 -68.46875 C 43.328125 -65.9375 41.273438 -62.582031 39.609375 -58.40625 Z M 39.609375 -58.40625 "/></g></g></g><g fill="#1800ad" fill-opacity="1"><g transform="translate(470.010959, 140.860325)"><g><path d="M 0.96875 -82.78125 C 0.96875 -85.03125 1.863281 -86.78125 3.65625 -88.03125 C 5.457031 -89.289062 7.738281 -90.320312 10.5 -91.125 C 13.269531 -91.925781 16.097656 -92.710938 18.984375 -93.484375 C 20.140625 -93.804688 21.597656 -94.207031 23.359375 -94.6875 C 25.128906 -95.164062 26.929688 -95.644531 28.765625 -96.125 C 30.597656 -96.613281 32.234375 -97.019531 33.671875 -97.34375 C 35.117188 -97.664062 36.164062 -97.828125 36.8125 -97.828125 C 38.613281 -97.828125 40.332031 -97.132812 41.96875 -95.75 C 43.601562 -94.363281 44.9375 -91.8125 45.96875 -88.09375 C 46.09375 -87.570312 46.300781 -87.148438 46.59375 -86.828125 C 46.882812 -86.515625 47.351562 -86.359375 48 -86.359375 C 48.570312 -86.359375 49.628906 -86.9375 51.171875 -88.09375 C 52.710938 -89.25 54.703125 -90.578125 57.140625 -92.078125 C 59.585938 -93.585938 62.476562 -94.921875 65.8125 -96.078125 C 69.15625 -97.242188 72.953125 -97.828125 77.203125 -97.828125 C 83.046875 -97.828125 87.765625 -96.523438 91.359375 -93.921875 C 94.960938 -91.316406 97.613281 -87.734375 99.3125 -83.171875 C 101.019531 -78.609375 101.875 -73.375 101.875 -67.46875 L 101.875 -48.1875 C 101.875 -43.75 102.304688 -39.664062 103.171875 -35.9375 C 104.035156 -32.21875 105.0625 -28.765625 106.25 -25.578125 C 107.4375 -22.398438 108.460938 -19.414062 109.328125 -16.625 C 110.203125 -13.832031 110.640625 -11.148438 110.640625 -8.578125 C 110.640625 -6.265625 110.078125 -4.515625 108.953125 -3.328125 C 107.828125 -2.140625 106.441406 -1.300781 104.796875 -0.8125 C 103.160156 -0.332031 101.539062 -0.078125 99.9375 -0.046875 C 98.332031 -0.015625 97.015625 0 95.984375 0 L 77.96875 0 C 77.132812 0 75.992188 0 74.546875 0 C 73.097656 0 71.535156 -0.109375 69.859375 -0.328125 C 68.191406 -0.554688 66.585938 -0.957031 65.046875 -1.53125 C 63.503906 -2.113281 62.25 -2.96875 61.28125 -4.09375 C 60.320312 -5.21875 59.84375 -6.710938 59.84375 -8.578125 C 59.84375 -12.878906 60.304688 -17.195312 61.234375 -21.53125 C 62.171875 -25.875 63.101562 -30.257812 64.03125 -34.6875 C 64.96875 -39.125 65.375 -43.625 65.25 -48.1875 C 65.1875 -50.175781 65.023438 -52.28125 64.765625 -54.5 C 64.503906 -56.71875 64.050781 -58.804688 63.40625 -60.765625 C 62.769531 -62.722656 61.835938 -64.328125 60.609375 -65.578125 C 59.390625 -66.835938 57.816406 -67.46875 55.890625 -67.46875 C 53.835938 -67.46875 52.203125 -66.835938 50.984375 -65.578125 C 49.765625 -64.328125 48.863281 -62.722656 48.28125 -60.765625 C 47.707031 -58.804688 47.335938 -56.703125 47.171875 -54.453125 C 47.015625 -52.203125 46.9375 -50.113281 46.9375 -48.1875 C 46.9375 -44.457031 47.382812 -40.789062 48.28125 -37.1875 C 49.1875 -33.59375 50.21875 -30.125 51.375 -26.78125 C 52.53125 -23.445312 53.554688 -20.253906 54.453125 -17.203125 C 55.347656 -14.148438 55.796875 -11.273438 55.796875 -8.578125 C 55.796875 -6.710938 55.3125 -5.21875 54.34375 -4.09375 C 53.382812 -2.96875 52.132812 -2.113281 50.59375 -1.53125 C 49.050781 -0.957031 47.441406 -0.554688 45.765625 -0.328125 C 44.097656 -0.109375 42.539062 0 41.09375 0 C 39.65625 0 38.519531 0 37.6875 0 L 16.28125 0 C 15.257812 0 13.941406 -0.015625 12.328125 -0.046875 C 10.722656 -0.078125 9.101562 -0.332031 7.46875 -0.8125 C 5.832031 -1.300781 4.453125 -2.140625 3.328125 -3.328125 C 2.203125 -4.515625 1.640625 -6.265625 1.640625 -8.578125 C 1.640625 -11.148438 2.070312 -13.832031 2.9375 -16.625 C 3.800781 -19.414062 4.828125 -22.398438 6.015625 -25.578125 C 7.210938 -28.765625 8.242188 -32.21875 9.109375 -35.9375 C 9.972656 -39.664062 10.40625 -43.75 10.40625 -48.1875 C 10.40625 -52.425781 10.082031 -56.023438 9.4375 -58.984375 C 8.800781 -61.941406 8.015625 -64.476562 7.078125 -66.59375 C 6.148438 -68.71875 5.21875 -70.613281 4.28125 -72.28125 C 3.351562 -73.945312 2.566406 -75.597656 1.921875 -77.234375 C 1.285156 -78.878906 0.96875 -80.726562 0.96875 -82.78125 Z M 0.96875 -82.78125 "/></g></g></g><g fill="#1800ad" fill-opacity="1"><g transform="translate(581.6094, 140.860325)"><g><path d="M 33.0625 1.453125 C 27.082031 1.453125 21.664062 0.179688 16.8125 -2.359375 C 11.96875 -4.898438 8.113281 -8.59375 5.25 -13.4375 C 2.394531 -18.289062 0.96875 -24.15625 0.96875 -31.03125 C 0.96875 -35.59375 1.546875 -39.960938 2.703125 -44.140625 C 3.859375 -48.316406 5.300781 -52.265625 7.03125 -55.984375 C 8.769531 -59.710938 10.488281 -63.179688 12.1875 -66.390625 C 13.894531 -69.609375 15.328125 -72.550781 16.484375 -75.21875 C 17.640625 -77.882812 18.21875 -80.28125 18.21875 -82.40625 C 18.21875 -84.070312 17.988281 -85.191406 17.53125 -85.765625 C 17.082031 -86.347656 16.410156 -86.640625 15.515625 -86.640625 C 14.679688 -86.640625 13.648438 -86.476562 12.421875 -86.15625 C 11.203125 -85.832031 9.890625 -85.671875 8.484375 -85.671875 C 5.785156 -85.671875 3.875 -86.234375 2.75 -87.359375 C 1.625 -88.484375 1.0625 -90.039062 1.0625 -92.03125 C 1.0625 -94.476562 2.601562 -97.40625 5.6875 -100.8125 C 8.769531 -104.21875 12.753906 -108.164062 17.640625 -112.65625 C 20.523438 -115.351562 23.300781 -118.019531 25.96875 -120.65625 C 28.632812 -123.289062 31.007812 -125.472656 33.09375 -127.203125 C 35.1875 -128.941406 36.78125 -129.8125 37.875 -129.8125 C 39.15625 -129.8125 40.101562 -129.378906 40.71875 -128.515625 C 41.332031 -127.648438 41.75 -126.570312 41.96875 -125.28125 C 42.195312 -124 42.3125 -122.78125 42.3125 -121.625 L 42.3125 -96.375 L 46.265625 -96.375 C 47.804688 -96.375 49.054688 -95.890625 50.015625 -94.921875 C 50.984375 -93.960938 51.46875 -92.710938 51.46875 -91.171875 L 51.46875 -90.875 C 51.46875 -89.332031 50.984375 -88.078125 50.015625 -87.109375 C 49.054688 -86.148438 47.804688 -85.671875 46.265625 -85.671875 L 42.3125 -85.671875 L 42.3125 -48.1875 C 42.3125 -42.28125 42.757812 -37.460938 43.65625 -33.734375 C 44.550781 -30.003906 45.675781 -27.03125 47.03125 -24.8125 C 48.382812 -22.59375 49.734375 -20.804688 51.078125 -19.453125 C 52.429688 -18.109375 53.554688 -16.90625 54.453125 -15.84375 C 55.347656 -14.789062 55.796875 -13.492188 55.796875 -11.953125 C 55.796875 -9.828125 55.101562 -7.929688 53.71875 -6.265625 C 52.34375 -4.597656 50.53125 -3.1875 48.28125 -2.03125 C 46.03125 -0.875 43.570312 -0.00390625 40.90625 0.578125 C 38.238281 1.160156 35.625 1.453125 33.0625 1.453125 Z M 33.0625 1.453125 "/></g></g></g><g fill="#1800ad" fill-opacity="1"><g transform="translate(638.372316, 140.860325)"><g/></g></g><g fill="#1800ad" fill-opacity="1"><g transform="translate(674.993582, 140.860325)"><g><path d="M 1.921875 -8.578125 C 1.921875 -11.859375 2.207031 -14.863281 2.78125 -17.59375 C 3.363281 -20.320312 4.085938 -23.175781 4.953125 -26.15625 C 5.828125 -29.144531 6.710938 -32.613281 7.609375 -36.5625 C 8.515625 -40.519531 9.253906 -45.289062 9.828125 -50.875 C 10.410156 -56.46875 10.703125 -63.28125 10.703125 -71.3125 C 10.703125 -78 10.488281 -83.765625 10.0625 -88.609375 C 9.644531 -93.460938 9.097656 -97.625 8.421875 -101.09375 C 7.753906 -104.5625 7.050781 -107.582031 6.3125 -110.15625 C 5.570312 -112.726562 4.863281 -115.054688 4.1875 -117.140625 C 3.519531 -119.234375 2.972656 -121.304688 2.546875 -123.359375 C 2.128906 -125.410156 1.921875 -127.691406 1.921875 -130.203125 C 1.921875 -132.515625 2.484375 -134.265625 3.609375 -135.453125 C 4.734375 -136.640625 6.113281 -137.472656 7.75 -137.953125 C 9.394531 -138.441406 11.019531 -138.703125 12.625 -138.734375 C 14.226562 -138.765625 15.546875 -138.78125 16.578125 -138.78125 L 71.40625 -138.78125 C 78.03125 -138.78125 83.894531 -137.445312 89 -134.78125 C 94.113281 -132.113281 98.128906 -128.367188 101.046875 -123.546875 C 103.972656 -118.734375 105.4375 -113.113281 105.4375 -106.6875 C 105.4375 -103.925781 105.066406 -101.097656 104.328125 -98.203125 C 103.585938 -95.316406 102.363281 -92.539062 100.65625 -89.875 C 98.957031 -87.207031 96.707031 -84.828125 93.90625 -82.734375 C 91.113281 -80.648438 87.664062 -79.0625 83.5625 -77.96875 C 81.945312 -77.519531 81.140625 -76.910156 81.140625 -76.140625 C 81.140625 -75.617188 81.78125 -75.066406 83.0625 -74.484375 C 84.351562 -73.910156 85.992188 -73.191406 87.984375 -72.328125 C 89.984375 -71.460938 92.125 -70.242188 94.40625 -68.671875 C 96.6875 -67.097656 98.820312 -65.054688 100.8125 -62.546875 C 102.800781 -60.035156 104.4375 -56.882812 105.71875 -53.09375 C 107.007812 -49.3125 107.65625 -44.6875 107.65625 -39.21875 C 107.65625 -35.882812 107.1875 -32.398438 106.25 -28.765625 C 105.320312 -25.140625 103.84375 -21.625 101.8125 -18.21875 C 99.789062 -14.8125 97.109375 -11.722656 93.765625 -8.953125 C 90.429688 -6.191406 86.351562 -4.007812 81.53125 -2.40625 C 76.71875 -0.800781 71.066406 0 64.578125 0 L 15.03125 0 C 14.007812 0 12.773438 -0.015625 11.328125 -0.046875 C 9.878906 -0.078125 8.429688 -0.332031 6.984375 -0.8125 C 5.535156 -1.300781 4.328125 -2.140625 3.359375 -3.328125 C 2.398438 -4.515625 1.921875 -6.265625 1.921875 -8.578125 Z M 47.125 -34.890625 C 47.125 -32.128906 47.640625 -30.28125 48.671875 -29.34375 C 49.703125 -28.414062 51.113281 -27.953125 52.90625 -27.953125 C 56.050781 -27.953125 58.617188 -28.5625 60.609375 -29.78125 C 62.609375 -31 64.171875 -32.539062 65.296875 -34.40625 C 66.421875 -36.269531 67.207031 -38.195312 67.65625 -40.1875 C 68.101562 -42.175781 68.328125 -43.941406 68.328125 -45.484375 C 68.328125 -47.023438 68.101562 -48.804688 67.65625 -50.828125 C 67.207031 -52.859375 66.421875 -54.804688 65.296875 -56.671875 C 64.171875 -58.535156 62.609375 -60.078125 60.609375 -61.296875 C 58.617188 -62.515625 56.050781 -63.125 52.90625 -63.125 C 51.113281 -63.125 49.703125 -62.671875 48.671875 -61.765625 C 47.640625 -60.867188 47.125 -59.007812 47.125 -56.1875 C 47.125 -55.539062 47.140625 -54.492188 47.171875 -53.046875 C 47.203125 -51.609375 47.234375 -50.164062 47.265625 -48.71875 C 47.296875 -47.269531 47.3125 -46.191406 47.3125 -45.484375 C 47.3125 -44.847656 47.296875 -43.804688 47.265625 -42.359375 C 47.234375 -40.910156 47.203125 -39.476562 47.171875 -38.0625 C 47.140625 -36.65625 47.125 -35.597656 47.125 -34.890625 Z M 47.125 -90.6875 C 47.125 -88.695312 47.640625 -87.363281 48.671875 -86.6875 C 49.703125 -86.007812 51.113281 -85.671875 52.90625 -85.671875 C 56.050781 -85.671875 58.617188 -86.101562 60.609375 -86.96875 C 62.609375 -87.84375 64.171875 -88.953125 65.296875 -90.296875 C 66.421875 -91.648438 67.207031 -93.03125 67.65625 -94.4375 C 68.101562 -95.851562 68.328125 -97.140625 68.328125 -98.296875 C 68.328125 -99.390625 68.101562 -100.660156 67.65625 -102.109375 C 67.207031 -103.554688 66.421875 -104.953125 65.296875 -106.296875 C 64.171875 -107.648438 62.609375 -108.757812 60.609375 -109.625 C 58.617188 -110.488281 56.050781 -110.921875 52.90625 -110.921875 C 51.113281 -110.921875 49.703125 -110.582031 48.671875 -109.90625 C 47.640625 -109.238281 47.125 -107.910156 47.125 -105.921875 Z M 47.125 -90.6875 "/></g></g></g><g clip-path="url(#17ef38b020)"><g fill="#1800ad" fill-opacity="1"><g transform="translate(783.122692, 140.860325)"><g><path d="M 10.40625 -48.1875 C 10.40625 -52.425781 10.082031 -56.023438 9.4375 -58.984375 C 8.800781 -61.941406 8.015625 -64.476562 7.078125 -66.59375 C 6.148438 -68.71875 5.21875 -70.613281 4.28125 -72.28125 C 3.351562 -73.945312 2.566406 -75.597656 1.921875 -77.234375 C 1.285156 -78.878906 0.96875 -80.726562 0.96875 -82.78125 C 0.96875 -85.03125 1.863281 -86.78125 3.65625 -88.03125 C 5.457031 -89.289062 7.738281 -90.320312 10.5 -91.125 C 13.269531 -91.925781 16.097656 -92.710938 18.984375 -93.484375 C 20.140625 -93.804688 21.597656 -94.207031 23.359375 -94.6875 C 25.128906 -95.164062 26.929688 -95.644531 28.765625 -96.125 C 30.597656 -96.613281 32.234375 -97.019531 33.671875 -97.34375 C 35.117188 -97.664062 36.164062 -97.828125 36.8125 -97.828125 C 38.414062 -97.828125 40.003906 -97.242188 41.578125 -96.078125 C 43.160156 -94.921875 44.460938 -92.914062 45.484375 -90.0625 C 46.515625 -87.207031 47.03125 -83.207031 47.03125 -78.0625 C 47.03125 -74.65625 47.046875 -71.085938 47.078125 -67.359375 C 47.109375 -63.640625 47.125 -60.109375 47.125 -56.765625 C 47.125 -53.421875 47.125 -50.5625 47.125 -48.1875 C 47.125 -44.070312 47.554688 -40.085938 48.421875 -36.234375 C 49.296875 -32.378906 50.328125 -28.75 51.515625 -25.34375 C 52.703125 -21.9375 53.726562 -18.816406 54.59375 -15.984375 C 55.457031 -13.160156 55.890625 -10.691406 55.890625 -8.578125 C 55.890625 -6.265625 55.40625 -4.515625 54.4375 -3.328125 C 53.476562 -2.140625 52.273438 -1.300781 50.828125 -0.8125 C 49.390625 -0.332031 47.945312 -0.078125 46.5 -0.046875 C 45.050781 -0.015625 43.816406 0 42.796875 0 L 14.84375 0 C 13.8125 0 12.570312 -0.015625 11.125 -0.046875 C 9.6875 -0.078125 8.242188 -0.332031 6.796875 -0.8125 C 5.347656 -1.300781 4.140625 -2.140625 3.171875 -3.328125 C 2.210938 -4.515625 1.734375 -6.265625 1.734375 -8.578125 C 1.734375 -11.148438 2.164062 -13.832031 3.03125 -16.625 C 3.90625 -19.414062 4.921875 -22.414062 6.078125 -25.625 C 7.234375 -28.84375 8.242188 -32.296875 9.109375 -35.984375 C 9.972656 -39.679688 10.40625 -43.75 10.40625 -48.1875 Z M 28.53125 -103.609375 C 27.4375 -103.609375 25.875 -104.023438 23.84375 -104.859375 C 21.820312 -105.691406 19.671875 -106.847656 17.390625 -108.328125 C 15.109375 -109.804688 12.921875 -111.523438 10.828125 -113.484375 C 8.742188 -115.441406 7.046875 -117.59375 5.734375 -119.9375 C 4.421875 -122.28125 3.765625 -124.738281 3.765625 -127.3125 C 3.765625 -129.882812 4.320312 -132.132812 5.4375 -134.0625 C 6.5625 -135.988281 8.023438 -137.492188 9.828125 -138.578125 C 11.628906 -139.671875 13.585938 -140.21875 15.703125 -140.21875 C 18.660156 -140.21875 21.179688 -139.382812 23.265625 -137.71875 C 25.359375 -136.050781 27.113281 -134.347656 28.53125 -132.609375 C 30.007812 -134.347656 31.789062 -136.050781 33.875 -137.71875 C 35.96875 -139.382812 38.488281 -140.21875 41.4375 -140.21875 C 43.5625 -140.21875 45.535156 -139.671875 47.359375 -138.578125 C 49.191406 -137.492188 50.65625 -135.988281 51.75 -134.0625 C 52.84375 -132.132812 53.390625 -129.882812 53.390625 -127.3125 C 53.390625 -124.738281 52.726562 -122.28125 51.40625 -119.9375 C 50.09375 -117.59375 48.390625 -115.441406 46.296875 -113.484375 C 44.210938 -111.523438 42.015625 -109.804688 39.703125 -108.328125 C 37.390625 -106.847656 35.238281 -105.691406 33.25 -104.859375 C 31.257812 -104.023438 29.6875 -103.609375 28.53125 -103.609375 Z M 28.53125 -103.609375 "/></g></g></g></g><g fill="#1800ad" fill-opacity="1"><g transform="translate(839.981959, 140.860325)"><g><path d="M 33.0625 1.453125 C 27.082031 1.453125 21.664062 0.179688 16.8125 -2.359375 C 11.96875 -4.898438 8.113281 -8.59375 5.25 -13.4375 C 2.394531 -18.289062 0.96875 -24.15625 0.96875 -31.03125 C 0.96875 -35.59375 1.546875 -39.960938 2.703125 -44.140625 C 3.859375 -48.316406 5.300781 -52.265625 7.03125 -55.984375 C 8.769531 -59.710938 10.488281 -63.179688 12.1875 -66.390625 C 13.894531 -69.609375 15.328125 -72.550781 16.484375 -75.21875 C 17.640625 -77.882812 18.21875 -80.28125 18.21875 -82.40625 C 18.21875 -84.070312 17.988281 -85.191406 17.53125 -85.765625 C 17.082031 -86.347656 16.410156 -86.640625 15.515625 -86.640625 C 14.679688 -86.640625 13.648438 -86.476562 12.421875 -86.15625 C 11.203125 -85.832031 9.890625 -85.671875 8.484375 -85.671875 C 5.785156 -85.671875 3.875 -86.234375 2.75 -87.359375 C 1.625 -88.484375 1.0625 -90.039062 1.0625 -92.03125 C 1.0625 -94.476562 2.601562 -97.40625 5.6875 -100.8125 C 8.769531 -104.21875 12.753906 -108.164062 17.640625 -112.65625 C 20.523438 -115.351562 23.300781 -118.019531 25.96875 -120.65625 C 28.632812 -123.289062 31.007812 -125.472656 33.09375 -127.203125 C 35.1875 -128.941406 36.78125 -129.8125 37.875 -129.8125 C 39.15625 -129.8125 40.101562 -129.378906 40.71875 -128.515625 C 41.332031 -127.648438 41.75 -126.570312 41.96875 -125.28125 C 42.195312 -124 42.3125 -122.78125 42.3125 -121.625 L 42.3125 -96.375 L 46.265625 -96.375 C 47.804688 -96.375 49.054688 -95.890625 50.015625 -94.921875 C 50.984375 -93.960938 51.46875 -92.710938 51.46875 -91.171875 L 51.46875 -90.875 C 51.46875 -89.332031 50.984375 -88.078125 50.015625 -87.109375 C 49.054688 -86.148438 47.804688 -85.671875 46.265625 -85.671875 L 42.3125 -85.671875 L 42.3125 -48.1875 C 42.3125 -42.28125 42.757812 -37.460938 43.65625 -33.734375 C 44.550781 -30.003906 45.675781 -27.03125 47.03125 -24.8125 C 48.382812 -22.59375 49.734375 -20.804688 51.078125 -19.453125 C 52.429688 -18.109375 53.554688 -16.90625 54.453125 -15.84375 C 55.347656 -14.789062 55.796875 -13.492188 55.796875 -11.953125 C 55.796875 -9.828125 55.101562 -7.929688 53.71875 -6.265625 C 52.34375 -4.597656 50.53125 -3.1875 48.28125 -2.03125 C 46.03125 -0.875 43.570312 -0.00390625 40.90625 0.578125 C 38.238281 1.160156 35.625 1.453125 33.0625 1.453125 Z M 33.0625 1.453125 "/></g></g></g><g fill="#1800ad" fill-opacity="1"><g transform="translate(896.744875, 140.860325)"><g><path d="M 2.40625 -48.1875 C 2.40625 -54.289062 3.445312 -60.296875 5.53125 -66.203125 C 7.625 -72.117188 10.804688 -77.453125 15.078125 -82.203125 C 19.347656 -86.960938 24.742188 -90.753906 31.265625 -93.578125 C 37.796875 -96.410156 45.523438 -97.828125 54.453125 -97.828125 C 59.398438 -97.828125 64.15625 -97.195312 68.71875 -95.9375 C 73.28125 -94.6875 77.34375 -92.789062 80.90625 -90.25 C 84.46875 -87.71875 87.289062 -84.554688 89.375 -80.765625 C 91.46875 -76.972656 92.515625 -72.539062 92.515625 -67.46875 C 92.515625 -61.875 91.660156 -57.019531 89.953125 -52.90625 C 88.253906 -48.789062 85.972656 -45.320312 83.109375 -42.5 C 80.253906 -39.675781 77.09375 -37.347656 73.625 -35.515625 C 70.15625 -33.679688 66.65625 -32.21875 63.125 -31.125 C 59.78125 -30.101562 56.835938 -29.625 54.296875 -29.6875 C 51.765625 -29.75 49.757812 -29.78125 48.28125 -29.78125 C 47.445312 -29.78125 46.820312 -29.695312 46.40625 -29.53125 C 45.988281 -29.375 45.78125 -29.007812 45.78125 -28.4375 C 45.78125 -27.40625 46.34375 -26.566406 47.46875 -25.921875 C 48.59375 -25.285156 49.941406 -24.820312 51.515625 -24.53125 C 53.085938 -24.238281 54.515625 -24.09375 55.796875 -24.09375 C 59.265625 -24.09375 62.1875 -24.523438 64.5625 -25.390625 C 66.945312 -26.265625 69.035156 -27.242188 70.828125 -28.328125 C 72.628906 -29.421875 74.363281 -30.398438 76.03125 -31.265625 C 77.707031 -32.140625 79.539062 -32.578125 81.53125 -32.578125 C 83.71875 -32.578125 85.597656 -32.046875 87.171875 -30.984375 C 88.742188 -29.921875 90.023438 -28.570312 91.015625 -26.9375 C 92.015625 -25.300781 92.753906 -23.613281 93.234375 -21.875 C 93.722656 -20.144531 93.96875 -18.570312 93.96875 -17.15625 C 93.96875 -14.257812 92.566406 -11.378906 89.765625 -8.515625 C 86.972656 -5.660156 82.671875 -3.285156 76.859375 -1.390625 C 71.046875 0.503906 63.578125 1.453125 54.453125 1.453125 C 45.972656 1.453125 38.503906 0.0546875 32.046875 -2.734375 C 25.585938 -5.535156 20.15625 -9.3125 15.75 -14.0625 C 11.351562 -18.820312 8.03125 -24.15625 5.78125 -30.0625 C 3.53125 -35.976562 2.40625 -42.019531 2.40625 -48.1875 Z M 39.609375 -58.40625 C 38.003906 -54.289062 37.425781 -50.960938 37.875 -48.421875 C 38.320312 -45.890625 39.734375 -44.625 42.109375 -44.625 C 44.554688 -44.625 47.015625 -45.890625 49.484375 -48.421875 C 51.960938 -50.960938 54.003906 -54.289062 55.609375 -58.40625 C 57.273438 -62.582031 57.867188 -65.9375 57.390625 -68.46875 C 56.910156 -71.007812 55.445312 -72.28125 53 -72.28125 C 50.625 -72.28125 48.210938 -71.007812 45.765625 -68.46875 C 43.328125 -65.9375 41.273438 -62.582031 39.609375 -58.40625 Z M 39.609375 -58.40625 "/></g></g></g></g></g><g clip-path="url(#5e071b7262)"><g clip-path="url(#88d9f652aa)"><g clip-path="url(#7706dfb964)"><g transform="matrix(1, 0, 0, 1, 367, 419)"><g clip-path="url(#e96768b78a)"><g clip-path="url(#ad9cc69cfe)"><g clip-path="url(#b86ec70f4b)"><g clip-path="url(#b7abd6ba75)"><path fill="#ffffff" d="M -10.261719 19.171875 L 34.707031 -10.125 L 64.007812 34.84375 L 19.039062 64.140625 Z M -10.261719 19.171875 " fill-opacity="1" fill-rule="nonzero"/></g></g></g></g></g></g></g></g><g clip-path="url(#44b290750c)"><g clip-path="url(#22f5d669d1)"><g clip-path="url(#ae2481abb2)"><g transform="matrix(1, 0, 0, 1, 497, 337)"><g clip-path="url(#76895fad82)"><g clip-path="url(#808d7cdd08)"><g clip-path="url(#2b0458d06e)"><g clip-path="url(#8a5a3b2598)"><path fill="#ffffff" d="M -9.609375 19.148438 L 35.359375 -10.148438 L 64.660156 34.820312 L 19.6875 64.117188 Z M -9.609375 19.148438 " fill-opacity="1" fill-rule="nonzero"/></g></g></g></g></g></g></g></g><g clip-path="url(#dd9d170708)"><g clip-path="url(#3bc4c1fda8)"><g clip-path="url(#c65f147f42)"><g transform="matrix(1, 0, 0, 1, 757, 346)"><g clip-path="url(#9c14907c0f)"><g clip-path="url(#a7c351f232)"><g clip-path="url(#c11784c411)"><g clip-path="url(#92712d52c2)"><path fill="#ffffff" d="M -6.566406 12.832031 L 23.019531 -6.441406 L 42.296875 23.144531 L 12.710938 42.417969 Z M -6.566406 12.832031 " fill-opacity="1" fill-rule="nonzero"/></g></g></g></g></g></g></g></g><g clip-path="url(#80d83a254d)"><g clip-path="url(#695258a7d8)"><g clip-path="url(#2c5eac53a1)"><g transform="matrix(1, 0, 0, 1, 957, 429)"><g clip-path="url(#c63bcc58ab)"><g clip-path="url(#33114fa560)"><g clip-path="url(#97caaa4c55)"><g clip-path="url(#15b4653bd2)"><path fill="#ffffff" d="M -5.785156 12.851562 L 23.800781 -6.425781 L 43.078125 23.160156 L 13.492188 42.4375 Z M -5.785156 12.851562 " fill-opacity="1" fill-rule="nonzero"/></g></g></g></g></g></g></g></g><g clip-path="url(#e6f6ece656)"><g clip-path="url(#91290dcb01)"><g clip-path="url(#742392c9d8)"><g transform="matrix(1, 0, 0, 1, 1179, 346)"><g clip-path="url(#8e1a70192a)"><g clip-path="url(#8bef863ae2)"><g clip-path="url(#ac5557d7e2)"><g clip-path="url(#b7a480d501)"><path fill="#ffffff" d="M -5.835938 12.832031 L 23.75 -6.441406 L 43.027344 23.144531 L 13.441406 42.417969 Z M -5.835938 12.832031 " fill-opacity="1" fill-rule="nonzero"/></g></g></g></g></g></g></g></g></svg>