<svg xmlns="http://www.w3.org/2000/svg" xmlns:xlink="http://www.w3.org/1999/xlink" width="1293" zoomAndPan="magnify" viewBox="0 0 969.75 182.249993" height="243" preserveAspectRatio="xMidYMid meet" version="1.0"><defs><g/><clipPath id="a897462b82"><path d="M 1 0.59375 L 73 0.59375 L 73 96 L 1 96 Z M 1 0.59375 " clip-rule="nonzero"/></clipPath><clipPath id="d0831b7ff3"><path d="M 526 0.59375 L 564 0.59375 L 564 95 L 526 95 Z M 526 0.59375 " clip-rule="nonzero"/></clipPath><clipPath id="1444235607"><rect x="0" width="666" y="0" height="126"/></clipPath><clipPath id="68e1c78619"><path d="M 248 100 L 285 100 L 285 137 L 248 137 Z M 248 100 " clip-rule="nonzero"/></clipPath><clipPath id="9dbc42168a"><path d="M 241.117188 113 L 271.277344 93.351562 L 290.929688 123.511719 L 260.769531 143.160156 Z M 241.117188 113 " clip-rule="nonzero"/></clipPath><clipPath id="ea220e278e"><path d="M 256.199219 103.175781 C 247.871094 108.601562 245.515625 119.753906 250.945312 128.082031 C 256.371094 136.410156 267.519531 138.761719 275.847656 133.335938 C 284.175781 127.910156 286.53125 116.757812 281.101562 108.429688 C 275.675781 100.101562 264.527344 97.75 256.199219 103.175781 Z M 256.199219 103.175781 " clip-rule="nonzero"/></clipPath><clipPath id="8215fcbad1"><path d="M 0 0 L 37 0 L 37 37 L 0 37 Z M 0 0 " clip-rule="nonzero"/></clipPath><clipPath id="a77721ce43"><path d="M -6.882812 13 L 23.277344 -6.648438 L 42.929688 23.511719 L 12.769531 43.160156 Z M -6.882812 13 " clip-rule="nonzero"/></clipPath><clipPath id="ec3e032789"><path d="M 8.199219 3.175781 C -0.128906 8.601562 -2.484375 19.753906 2.945312 28.082031 C 8.371094 36.410156 19.519531 38.761719 27.847656 33.335938 C 36.175781 27.910156 38.53125 16.757812 33.101562 8.429688 C 27.675781 0.101562 16.527344 -2.25 8.199219 3.175781 Z M 8.199219 3.175781 " clip-rule="nonzero"/></clipPath><clipPath id="cf30d466fe"><rect x="0" width="37" y="0" height="37"/></clipPath><clipPath id="e5c3e7b8a4"><path d="M 335 45 L 372 45 L 372 82 L 335 82 Z M 335 45 " clip-rule="nonzero"/></clipPath><clipPath id="5fa8e67934"><path d="M 328.742188 57.988281 L 358.902344 38.339844 L 378.554688 68.5 L 348.394531 88.148438 Z M 328.742188 57.988281 " clip-rule="nonzero"/></clipPath><clipPath id="043aaf3f2a"><path d="M 343.824219 48.164062 C 335.496094 53.589844 333.144531 64.742188 338.570312 73.070312 C 343.996094 81.398438 355.144531 83.75 363.472656 78.324219 C 371.800781 72.898438 374.15625 61.75 368.730469 53.421875 C 363.300781 45.089844 352.152344 42.738281 343.824219 48.164062 Z M 343.824219 48.164062 " clip-rule="nonzero"/></clipPath><clipPath id="80596fe350"><path d="M 0 0 L 37 0 L 37 37 L 0 37 Z M 0 0 " clip-rule="nonzero"/></clipPath><clipPath id="d01f4c74d2"><path d="M -6.257812 12.988281 L 23.902344 -6.660156 L 43.554688 23.5 L 13.394531 43.148438 Z M -6.257812 12.988281 " clip-rule="nonzero"/></clipPath><clipPath id="9a94318080"><path d="M 8.824219 3.164062 C 0.496094 8.589844 -1.855469 19.742188 3.570312 28.070312 C 8.996094 36.398438 20.144531 38.75 28.472656 33.324219 C 36.800781 27.898438 39.15625 16.75 33.730469 8.421875 C 28.300781 0.0898438 17.152344 -2.261719 8.824219 3.164062 Z M 8.824219 3.164062 " clip-rule="nonzero"/></clipPath><clipPath id="43e9e340f6"><rect x="0" width="37" y="0" height="37"/></clipPath><clipPath id="6fa4dc96c8"><path d="M 509 51 L 534 51 L 534 76 L 509 76 Z M 509 51 " clip-rule="nonzero"/></clipPath><clipPath id="4af04c3006"><path d="M 505.160156 59.789062 L 525.003906 46.859375 L 537.933594 66.703125 L 518.089844 79.628906 Z M 505.160156 59.789062 " clip-rule="nonzero"/></clipPath><clipPath id="c67c385826"><path d="M 515.082031 53.324219 C 509.605469 56.894531 508.054688 64.230469 511.625 69.710938 C 515.195312 75.1875 522.53125 76.738281 528.011719 73.167969 C 533.492188 69.597656 535.039062 62.261719 531.46875 56.78125 C 527.898438 51.300781 520.5625 49.753906 515.082031 53.324219 Z M 515.082031 53.324219 " clip-rule="nonzero"/></clipPath><clipPath id="4fe4b51594"><path d="M 0 0 L 25 0 L 25 25 L 0 25 Z M 0 0 " clip-rule="nonzero"/></clipPath><clipPath id="d5af8ee0f5"><path d="M -3.839844 8.789062 L 16.003906 -4.140625 L 28.933594 15.703125 L 9.089844 28.628906 Z M -3.839844 8.789062 " clip-rule="nonzero"/></clipPath><clipPath id="6946d43f1f"><path d="M 6.082031 2.324219 C 0.605469 5.894531 -0.945312 13.230469 2.625 18.710938 C 6.195312 24.1875 13.53125 25.738281 19.011719 22.167969 C 24.492188 18.597656 26.039062 11.261719 22.46875 5.78125 C 18.898438 0.300781 11.5625 -1.246094 6.082031 2.324219 Z M 6.082031 2.324219 " clip-rule="nonzero"/></clipPath><clipPath id="eb0ac5e2e8"><rect x="0" width="25" y="0" height="25"/></clipPath><clipPath id="6ce1dc50c4"><path d="M 644 107 L 669 107 L 669 131 L 644 131 Z M 644 107 " clip-rule="nonzero"/></clipPath><clipPath id="bf8839c8ba"><path d="M 639.820312 115.464844 L 659.664062 102.539062 L 672.589844 122.378906 L 652.75 135.308594 Z M 639.820312 115.464844 " clip-rule="nonzero"/></clipPath><clipPath id="3569221203"><path d="M 649.742188 109 C 644.261719 112.570312 642.714844 119.90625 646.285156 125.386719 C 649.855469 130.867188 657.191406 132.414062 662.671875 128.84375 C 668.148438 125.273438 669.699219 117.9375 666.128906 112.457031 C 662.558594 106.980469 655.222656 105.433594 649.742188 109 Z M 649.742188 109 " clip-rule="nonzero"/></clipPath><clipPath id="d02ced69b8"><path d="M 0 0 L 25 0 L 25 24 L 0 24 Z M 0 0 " clip-rule="nonzero"/></clipPath><clipPath id="5cb279c271"><path d="M -4.179688 8.464844 L 15.664062 -4.460938 L 28.589844 15.378906 L 8.75 28.308594 Z M -4.179688 8.464844 " clip-rule="nonzero"/></clipPath><clipPath id="9a02f60f8c"><path d="M 5.742188 2 C 0.261719 5.570312 -1.285156 12.90625 2.285156 18.386719 C 5.855469 23.867188 13.191406 25.414062 18.671875 21.84375 C 24.148438 18.273438 25.699219 10.9375 22.128906 5.457031 C 18.558594 -0.0195312 11.222656 -1.566406 5.742188 2 Z M 5.742188 2 " clip-rule="nonzero"/></clipPath><clipPath id="95a2a36437"><rect x="0" width="25" y="0" height="24"/></clipPath><clipPath id="69c4247aaf"><path d="M 793 51 L 817 51 L 817 76 L 793 76 Z M 793 51 " clip-rule="nonzero"/></clipPath><clipPath id="0b4a5bdf06"><path d="M 788.679688 59.789062 L 808.519531 46.859375 L 821.449219 66.703125 L 801.605469 79.628906 Z M 788.679688 59.789062 " clip-rule="nonzero"/></clipPath><clipPath id="7a9f2e51e5"><path d="M 798.601562 53.324219 C 793.121094 56.894531 791.574219 64.230469 795.144531 69.710938 C 798.710938 75.1875 806.046875 76.738281 811.527344 73.167969 C 817.007812 69.597656 818.554688 62.261719 814.984375 56.78125 C 811.414062 51.300781 804.078125 49.753906 798.601562 53.324219 Z M 798.601562 53.324219 " clip-rule="nonzero"/></clipPath><clipPath id="83e9c1d825"><path d="M 0 0 L 24 0 L 24 25 L 0 25 Z M 0 0 " clip-rule="nonzero"/></clipPath><clipPath id="f0d5f81ca4"><path d="M -4.320312 8.789062 L 15.519531 -4.140625 L 28.449219 15.703125 L 8.605469 28.628906 Z M -4.320312 8.789062 " clip-rule="nonzero"/></clipPath><clipPath id="8820fbdb2d"><path d="M 5.601562 2.324219 C 0.121094 5.894531 -1.425781 13.230469 2.144531 18.710938 C 5.710938 24.1875 13.046875 25.738281 18.527344 22.167969 C 24.007812 18.597656 25.554688 11.261719 21.984375 5.78125 C 18.414062 0.300781 11.078125 -1.246094 5.601562 2.324219 Z M 5.601562 2.324219 " clip-rule="nonzero"/></clipPath><clipPath id="71ac6eebee"><rect x="0" width="24" y="0" height="25"/></clipPath></defs><g transform="matrix(1, 0, 0, 1, 151, 30)"><g clip-path="url(#1444235607)"><g clip-path="url(#a897462b82)"><g fill="#1800ad" fill-opacity="1"><g transform="translate(2.302278, 94.862408)"><g><path d="M 38.59375 0.96875 C 32.507812 0.96875 27.257812 0.171875 22.84375 -1.421875 C 18.425781 -3.015625 14.707031 -5.273438 11.6875 -8.203125 C 8.675781 -11.140625 6.265625 -14.578125 4.453125 -18.515625 C 2.648438 -22.460938 1.347656 -26.816406 0.546875 -31.578125 C -0.242188 -36.335938 -0.640625 -41.328125 -0.640625 -46.546875 C -0.640625 -51.753906 -0.242188 -56.738281 0.546875 -61.5 C 1.347656 -66.257812 2.648438 -70.613281 4.453125 -74.5625 C 6.265625 -78.507812 8.675781 -81.945312 11.6875 -84.875 C 14.707031 -87.800781 18.425781 -90.0625 22.84375 -91.65625 C 27.257812 -93.25 32.507812 -94.046875 38.59375 -94.046875 C 44.625 -94.046875 49.695312 -93.320312 53.8125 -91.875 C 57.925781 -90.4375 61.210938 -88.53125 63.671875 -86.15625 C 66.128906 -83.789062 67.90625 -81.207031 69 -78.40625 C 70.101562 -75.601562 70.65625 -72.847656 70.65625 -70.140625 C 70.65625 -67.765625 70.191406 -65.597656 69.265625 -63.640625 C 68.335938 -61.679688 67.117188 -59.988281 65.609375 -58.5625 C 64.097656 -57.144531 62.414062 -56.046875 60.5625 -55.265625 C 58.707031 -54.492188 56.878906 -54.109375 55.078125 -54.109375 C 52.742188 -54.109375 50.722656 -54.882812 49.015625 -56.4375 C 47.316406 -57.988281 46.46875 -60.460938 46.46875 -63.859375 C 46.46875 -66.359375 46.265625 -68.382812 45.859375 -69.9375 C 45.453125 -71.488281 44.6875 -72.617188 43.5625 -73.328125 C 42.445312 -74.046875 40.789062 -74.40625 38.59375 -74.40625 C 35.875 -74.40625 33.617188 -73.679688 31.828125 -72.234375 C 30.046875 -70.796875 28.632812 -68.789062 27.59375 -66.21875 C 26.5625 -63.65625 25.816406 -60.691406 25.359375 -57.328125 C 24.910156 -53.972656 24.6875 -50.378906 24.6875 -46.546875 C 24.6875 -42.703125 24.910156 -39.097656 25.359375 -35.734375 C 25.816406 -32.378906 26.5625 -29.421875 27.59375 -26.859375 C 28.632812 -24.296875 30.046875 -22.289062 31.828125 -20.84375 C 33.617188 -19.40625 35.875 -18.6875 38.59375 -18.6875 C 40.789062 -18.6875 42.445312 -19.039062 43.5625 -19.75 C 44.6875 -20.457031 45.453125 -21.585938 45.859375 -23.140625 C 46.265625 -24.691406 46.46875 -26.71875 46.46875 -29.21875 C 46.46875 -32.664062 47.316406 -35.15625 49.015625 -36.6875 C 50.722656 -38.21875 52.742188 -38.984375 55.078125 -38.984375 C 56.878906 -38.984375 58.707031 -38.59375 60.5625 -37.8125 C 62.414062 -37.039062 64.097656 -35.941406 65.609375 -34.515625 C 67.117188 -33.097656 68.335938 -31.40625 69.265625 -29.4375 C 70.191406 -27.476562 70.65625 -25.316406 70.65625 -22.953125 C 70.65625 -20.234375 70.101562 -17.472656 69 -14.671875 C 67.90625 -11.867188 66.128906 -9.28125 63.671875 -6.90625 C 61.210938 -4.539062 57.925781 -2.632812 53.8125 -1.1875 C 49.695312 0.25 44.625 0.96875 38.59375 0.96875 Z M 38.59375 0.96875 "/></g></g></g></g><g fill="#1800ad" fill-opacity="1"><g transform="translate(74.886646, 94.862408)"><g><path d="M 32.25 0.96875 C 25.789062 0.96875 20.273438 -0.421875 15.703125 -3.203125 C 11.140625 -5.984375 7.648438 -9.867188 5.234375 -14.859375 C 2.816406 -19.859375 1.609375 -25.703125 1.609375 -32.390625 C 1.609375 -39.023438 2.816406 -44.828125 5.234375 -49.796875 C 7.648438 -54.773438 11.140625 -58.65625 15.703125 -61.4375 C 20.273438 -64.21875 25.789062 -65.609375 32.25 -65.609375 C 38.71875 -65.609375 44.234375 -64.21875 48.796875 -61.4375 C 53.367188 -58.65625 56.859375 -54.773438 59.265625 -49.796875 C 61.679688 -44.828125 62.890625 -39.023438 62.890625 -32.390625 C 62.890625 -25.703125 61.679688 -19.859375 59.265625 -14.859375 C 56.859375 -9.867188 53.367188 -5.984375 48.796875 -3.203125 C 44.234375 -0.421875 38.71875 0.96875 32.25 0.96875 Z M 26.5 -32.25 C 26.5 -27.425781 27.023438 -23.523438 28.078125 -20.546875 C 29.140625 -17.578125 30.53125 -16.09375 32.25 -16.09375 C 33.976562 -16.09375 35.367188 -17.578125 36.421875 -20.546875 C 37.484375 -23.523438 38.015625 -27.425781 38.015625 -32.25 C 38.015625 -37.125 37.484375 -41.046875 36.421875 -44.015625 C 35.367188 -46.992188 33.976562 -48.484375 32.25 -48.484375 C 30.53125 -48.484375 29.140625 -46.992188 28.078125 -44.015625 C 27.023438 -41.046875 26.5 -37.125 26.5 -32.25 Z M 26.5 -32.25 "/></g></g></g><g fill="#1800ad" fill-opacity="1"><g transform="translate(139.391725, 94.862408)"><g><path d="M 0.640625 -55.53125 C 0.640625 -57.03125 1.242188 -58.203125 2.453125 -59.046875 C 3.660156 -59.890625 5.191406 -60.578125 7.046875 -61.109375 C 8.898438 -61.648438 10.796875 -62.179688 12.734375 -62.703125 C 13.503906 -62.921875 14.484375 -63.191406 15.671875 -63.515625 C 16.859375 -63.835938 18.066406 -64.160156 19.296875 -64.484375 C 20.523438 -64.804688 21.625 -65.070312 22.59375 -65.28125 C 23.5625 -65.5 24.257812 -65.609375 24.6875 -65.609375 C 25.894531 -65.609375 27.046875 -65.144531 28.140625 -64.21875 C 29.242188 -63.289062 30.140625 -61.578125 30.828125 -59.078125 C 30.921875 -58.734375 31.0625 -58.453125 31.25 -58.234375 C 31.445312 -58.023438 31.757812 -57.921875 32.1875 -57.921875 C 32.570312 -57.921875 33.28125 -58.304688 34.3125 -59.078125 C 35.351562 -59.859375 36.691406 -60.753906 38.328125 -61.765625 C 39.960938 -62.773438 41.898438 -63.664062 44.140625 -64.4375 C 46.390625 -65.21875 48.9375 -65.609375 51.78125 -65.609375 C 55.695312 -65.609375 58.863281 -64.734375 61.28125 -62.984375 C 63.695312 -61.242188 65.472656 -58.84375 66.609375 -55.78125 C 67.753906 -52.71875 68.328125 -49.207031 68.328125 -45.25 L 68.328125 -32.3125 C 68.328125 -29.34375 68.617188 -26.609375 69.203125 -24.109375 C 69.785156 -21.609375 70.472656 -19.289062 71.265625 -17.15625 C 72.066406 -15.03125 72.753906 -13.03125 73.328125 -11.15625 C 73.910156 -9.28125 74.203125 -7.476562 74.203125 -5.75 C 74.203125 -4.195312 73.820312 -3.019531 73.0625 -2.21875 C 72.3125 -1.425781 71.382812 -0.867188 70.28125 -0.546875 C 69.1875 -0.222656 68.101562 -0.0507812 67.03125 -0.03125 C 65.957031 -0.0078125 65.070312 0 64.375 0 L 52.296875 0 C 51.734375 0 50.96875 0 50 0 C 49.03125 0 47.984375 -0.0703125 46.859375 -0.21875 C 45.742188 -0.375 44.664062 -0.644531 43.625 -1.03125 C 42.59375 -1.414062 41.753906 -1.984375 41.109375 -2.734375 C 40.460938 -3.492188 40.140625 -4.5 40.140625 -5.75 C 40.140625 -8.632812 40.453125 -11.53125 41.078125 -14.4375 C 41.703125 -17.351562 42.328125 -20.296875 42.953125 -23.265625 C 43.578125 -26.242188 43.847656 -29.257812 43.765625 -32.3125 C 43.722656 -33.65625 43.613281 -35.066406 43.4375 -36.546875 C 43.269531 -38.035156 42.96875 -39.4375 42.53125 -40.75 C 42.101562 -42.070312 41.476562 -43.148438 40.65625 -43.984375 C 39.84375 -44.828125 38.785156 -45.25 37.484375 -45.25 C 36.109375 -45.25 35.007812 -44.828125 34.1875 -43.984375 C 33.375 -43.148438 32.769531 -42.070312 32.375 -40.75 C 31.988281 -39.4375 31.742188 -38.023438 31.640625 -36.515625 C 31.535156 -35.015625 31.484375 -33.613281 31.484375 -32.3125 C 31.484375 -29.820312 31.785156 -27.367188 32.390625 -24.953125 C 32.992188 -22.535156 33.679688 -20.207031 34.453125 -17.96875 C 35.222656 -15.726562 35.910156 -13.582031 36.515625 -11.53125 C 37.117188 -9.488281 37.421875 -7.5625 37.421875 -5.75 C 37.421875 -4.5 37.097656 -3.492188 36.453125 -2.734375 C 35.804688 -1.984375 34.96875 -1.414062 33.9375 -1.03125 C 32.90625 -0.644531 31.828125 -0.375 30.703125 -0.21875 C 29.585938 -0.0703125 28.539062 0 27.5625 0 C 26.59375 0 25.832031 0 25.28125 0 L 10.921875 0 C 10.234375 0 9.347656 -0.0078125 8.265625 -0.03125 C 7.191406 -0.0507812 6.101562 -0.222656 5 -0.546875 C 3.90625 -0.867188 2.976562 -1.425781 2.21875 -2.21875 C 1.46875 -3.019531 1.09375 -4.195312 1.09375 -5.75 C 1.09375 -7.476562 1.382812 -9.28125 1.96875 -11.15625 C 2.550781 -13.03125 3.238281 -15.03125 4.03125 -17.15625 C 4.832031 -19.289062 5.523438 -21.609375 6.109375 -24.109375 C 6.691406 -26.609375 6.984375 -29.34375 6.984375 -32.3125 C 6.984375 -35.164062 6.765625 -37.582031 6.328125 -39.5625 C 5.898438 -41.539062 5.375 -43.238281 4.75 -44.65625 C 4.125 -46.082031 3.5 -47.351562 2.875 -48.46875 C 2.25 -49.59375 1.71875 -50.703125 1.28125 -51.796875 C 0.851562 -52.898438 0.640625 -54.144531 0.640625 -55.53125 Z M 0.640625 -55.53125 "/></g></g></g><g fill="#1800ad" fill-opacity="1"><g transform="translate(214.238288, 94.862408)"><g><path d="M 22.171875 0.96875 C 18.160156 0.96875 14.53125 0.117188 11.28125 -1.578125 C 8.03125 -3.285156 5.441406 -5.765625 3.515625 -9.015625 C 1.597656 -12.265625 0.640625 -16.195312 0.640625 -20.8125 C 0.640625 -23.875 1.023438 -26.804688 1.796875 -29.609375 C 2.578125 -32.410156 3.550781 -35.0625 4.71875 -37.5625 C 5.882812 -40.0625 7.035156 -42.382812 8.171875 -44.53125 C 9.316406 -46.6875 10.273438 -48.660156 11.046875 -50.453125 C 11.828125 -52.242188 12.21875 -53.847656 12.21875 -55.265625 C 12.21875 -56.390625 12.066406 -57.144531 11.765625 -57.53125 C 11.460938 -57.914062 11.007812 -58.109375 10.40625 -58.109375 C 9.84375 -58.109375 9.148438 -58 8.328125 -57.78125 C 7.515625 -57.570312 6.632812 -57.46875 5.6875 -57.46875 C 3.875 -57.46875 2.59375 -57.84375 1.84375 -58.59375 C 1.09375 -59.351562 0.71875 -60.398438 0.71875 -61.734375 C 0.71875 -63.367188 1.75 -65.328125 3.8125 -67.609375 C 5.882812 -69.898438 8.554688 -72.550781 11.828125 -75.5625 C 13.765625 -77.375 15.628906 -79.160156 17.421875 -80.921875 C 19.210938 -82.691406 20.804688 -84.160156 22.203125 -85.328125 C 23.609375 -86.492188 24.675781 -87.078125 25.40625 -87.078125 C 26.269531 -87.078125 26.90625 -86.785156 27.3125 -86.203125 C 27.71875 -85.617188 27.992188 -84.894531 28.140625 -84.03125 C 28.296875 -83.164062 28.375 -82.347656 28.375 -81.578125 L 28.375 -64.640625 L 31.03125 -64.640625 C 32.0625 -64.640625 32.898438 -64.316406 33.546875 -63.671875 C 34.191406 -63.023438 34.515625 -62.1875 34.515625 -61.15625 L 34.515625 -60.953125 C 34.515625 -59.921875 34.191406 -59.082031 33.546875 -58.4375 C 32.898438 -57.789062 32.0625 -57.46875 31.03125 -57.46875 L 28.375 -57.46875 L 28.375 -32.3125 C 28.375 -28.351562 28.675781 -25.125 29.28125 -22.625 C 29.882812 -20.125 30.640625 -18.128906 31.546875 -16.640625 C 32.453125 -15.160156 33.351562 -13.96875 34.25 -13.0625 C 35.15625 -12.15625 35.910156 -11.34375 36.515625 -10.625 C 37.117188 -9.914062 37.421875 -9.046875 37.421875 -8.015625 C 37.421875 -6.585938 36.957031 -5.3125 36.03125 -4.1875 C 35.101562 -3.070312 33.882812 -2.125 32.375 -1.34375 C 30.875 -0.570312 29.226562 0.00390625 27.4375 0.390625 C 25.644531 0.773438 23.890625 0.96875 22.171875 0.96875 Z M 22.171875 0.96875 "/></g></g></g><g fill="#1800ad" fill-opacity="1"><g transform="translate(252.307928, 94.862408)"><g><path d="M 1.609375 -32.3125 C 1.609375 -36.414062 2.304688 -40.445312 3.703125 -44.40625 C 5.109375 -48.375 7.242188 -51.953125 10.109375 -55.140625 C 12.984375 -58.328125 16.601562 -60.867188 20.96875 -62.765625 C 25.34375 -64.660156 30.523438 -65.609375 36.515625 -65.609375 C 39.835938 -65.609375 43.023438 -65.1875 46.078125 -64.34375 C 49.140625 -63.507812 51.867188 -62.238281 54.265625 -60.53125 C 56.660156 -58.832031 58.554688 -56.710938 59.953125 -54.171875 C 61.359375 -51.628906 62.0625 -48.65625 62.0625 -45.25 C 62.0625 -41.5 61.488281 -38.242188 60.34375 -35.484375 C 59.195312 -32.722656 57.664062 -30.394531 55.75 -28.5 C 53.832031 -26.601562 51.707031 -25.039062 49.375 -23.8125 C 47.050781 -22.59375 44.707031 -21.613281 42.34375 -20.875 C 40.101562 -20.1875 38.128906 -19.863281 36.421875 -19.90625 C 34.722656 -19.945312 33.378906 -19.96875 32.390625 -19.96875 C 31.828125 -19.96875 31.40625 -19.914062 31.125 -19.8125 C 30.84375 -19.707031 30.703125 -19.457031 30.703125 -19.0625 C 30.703125 -18.375 31.078125 -17.8125 31.828125 -17.375 C 32.585938 -16.945312 33.492188 -16.632812 34.546875 -16.4375 C 35.609375 -16.25 36.566406 -16.15625 37.421875 -16.15625 C 39.753906 -16.15625 41.71875 -16.445312 43.3125 -17.03125 C 44.90625 -17.613281 46.304688 -18.269531 47.515625 -19 C 48.722656 -19.738281 49.882812 -20.394531 51 -20.96875 C 52.125 -21.550781 53.351562 -21.84375 54.6875 -21.84375 C 56.15625 -21.84375 57.414062 -21.488281 58.46875 -20.78125 C 59.519531 -20.070312 60.378906 -19.164062 61.046875 -18.0625 C 61.722656 -16.96875 62.222656 -15.835938 62.546875 -14.671875 C 62.867188 -13.503906 63.03125 -12.445312 63.03125 -11.5 C 63.03125 -9.5625 62.09375 -7.632812 60.21875 -5.71875 C 58.34375 -3.800781 55.453125 -2.207031 51.546875 -0.9375 C 47.648438 0.332031 42.640625 0.96875 36.515625 0.96875 C 30.828125 0.96875 25.816406 0.03125 21.484375 -1.84375 C 17.160156 -3.71875 13.519531 -6.25 10.5625 -9.4375 C 7.613281 -12.625 5.382812 -16.195312 3.875 -20.15625 C 2.363281 -24.125 1.609375 -28.175781 1.609375 -32.3125 Z M 26.5625 -39.171875 C 25.488281 -36.410156 25.101562 -34.175781 25.40625 -32.46875 C 25.707031 -30.769531 26.65625 -29.921875 28.25 -29.921875 C 29.882812 -29.921875 31.53125 -30.769531 33.1875 -32.46875 C 34.851562 -34.175781 36.222656 -36.410156 37.296875 -39.171875 C 38.421875 -41.972656 38.820312 -44.222656 38.5 -45.921875 C 38.175781 -47.628906 37.191406 -48.484375 35.546875 -48.484375 C 33.953125 -48.484375 32.335938 -47.628906 30.703125 -45.921875 C 29.066406 -44.222656 27.6875 -41.972656 26.5625 -39.171875 Z M 26.5625 -39.171875 "/></g></g></g><g fill="#1800ad" fill-opacity="1"><g transform="translate(315.649577, 94.862408)"><g><path d="M 0.640625 -55.53125 C 0.640625 -57.03125 1.242188 -58.203125 2.453125 -59.046875 C 3.660156 -59.890625 5.191406 -60.578125 7.046875 -61.109375 C 8.898438 -61.648438 10.796875 -62.179688 12.734375 -62.703125 C 13.503906 -62.921875 14.484375 -63.191406 15.671875 -63.515625 C 16.859375 -63.835938 18.066406 -64.160156 19.296875 -64.484375 C 20.523438 -64.804688 21.625 -65.070312 22.59375 -65.28125 C 23.5625 -65.5 24.257812 -65.609375 24.6875 -65.609375 C 25.894531 -65.609375 27.046875 -65.144531 28.140625 -64.21875 C 29.242188 -63.289062 30.140625 -61.578125 30.828125 -59.078125 C 30.921875 -58.734375 31.0625 -58.453125 31.25 -58.234375 C 31.445312 -58.023438 31.757812 -57.921875 32.1875 -57.921875 C 32.570312 -57.921875 33.28125 -58.304688 34.3125 -59.078125 C 35.351562 -59.859375 36.691406 -60.753906 38.328125 -61.765625 C 39.960938 -62.773438 41.898438 -63.664062 44.140625 -64.4375 C 46.390625 -65.21875 48.9375 -65.609375 51.78125 -65.609375 C 55.695312 -65.609375 58.863281 -64.734375 61.28125 -62.984375 C 63.695312 -61.242188 65.472656 -58.84375 66.609375 -55.78125 C 67.753906 -52.71875 68.328125 -49.207031 68.328125 -45.25 L 68.328125 -32.3125 C 68.328125 -29.34375 68.617188 -26.609375 69.203125 -24.109375 C 69.785156 -21.609375 70.472656 -19.289062 71.265625 -17.15625 C 72.066406 -15.03125 72.753906 -13.03125 73.328125 -11.15625 C 73.910156 -9.28125 74.203125 -7.476562 74.203125 -5.75 C 74.203125 -4.195312 73.820312 -3.019531 73.0625 -2.21875 C 72.3125 -1.425781 71.382812 -0.867188 70.28125 -0.546875 C 69.1875 -0.222656 68.101562 -0.0507812 67.03125 -0.03125 C 65.957031 -0.0078125 65.070312 0 64.375 0 L 52.296875 0 C 51.734375 0 50.96875 0 50 0 C 49.03125 0 47.984375 -0.0703125 46.859375 -0.21875 C 45.742188 -0.375 44.664062 -0.644531 43.625 -1.03125 C 42.59375 -1.414062 41.753906 -1.984375 41.109375 -2.734375 C 40.460938 -3.492188 40.140625 -4.5 40.140625 -5.75 C 40.140625 -8.632812 40.453125 -11.53125 41.078125 -14.4375 C 41.703125 -17.351562 42.328125 -20.296875 42.953125 -23.265625 C 43.578125 -26.242188 43.847656 -29.257812 43.765625 -32.3125 C 43.722656 -33.65625 43.613281 -35.066406 43.4375 -36.546875 C 43.269531 -38.035156 42.96875 -39.4375 42.53125 -40.75 C 42.101562 -42.070312 41.476562 -43.148438 40.65625 -43.984375 C 39.84375 -44.828125 38.785156 -45.25 37.484375 -45.25 C 36.109375 -45.25 35.007812 -44.828125 34.1875 -43.984375 C 33.375 -43.148438 32.769531 -42.070312 32.375 -40.75 C 31.988281 -39.4375 31.742188 -38.023438 31.640625 -36.515625 C 31.535156 -35.015625 31.484375 -33.613281 31.484375 -32.3125 C 31.484375 -29.820312 31.785156 -27.367188 32.390625 -24.953125 C 32.992188 -22.535156 33.679688 -20.207031 34.453125 -17.96875 C 35.222656 -15.726562 35.910156 -13.582031 36.515625 -11.53125 C 37.117188 -9.488281 37.421875 -7.5625 37.421875 -5.75 C 37.421875 -4.5 37.097656 -3.492188 36.453125 -2.734375 C 35.804688 -1.984375 34.96875 -1.414062 33.9375 -1.03125 C 32.90625 -0.644531 31.828125 -0.375 30.703125 -0.21875 C 29.585938 -0.0703125 28.539062 0 27.5625 0 C 26.59375 0 25.832031 0 25.28125 0 L 10.921875 0 C 10.234375 0 9.347656 -0.0078125 8.265625 -0.03125 C 7.191406 -0.0507812 6.101562 -0.222656 5 -0.546875 C 3.90625 -0.867188 2.976562 -1.425781 2.21875 -2.21875 C 1.46875 -3.019531 1.09375 -4.195312 1.09375 -5.75 C 1.09375 -7.476562 1.382812 -9.28125 1.96875 -11.15625 C 2.550781 -13.03125 3.238281 -15.03125 4.03125 -17.15625 C 4.832031 -19.289062 5.523438 -21.609375 6.109375 -24.109375 C 6.691406 -26.609375 6.984375 -29.34375 6.984375 -32.3125 C 6.984375 -35.164062 6.765625 -37.582031 6.328125 -39.5625 C 5.898438 -41.539062 5.375 -43.238281 4.75 -44.65625 C 4.125 -46.082031 3.5 -47.351562 2.875 -48.46875 C 2.25 -49.59375 1.71875 -50.703125 1.28125 -51.796875 C 0.851562 -52.898438 0.640625 -54.144531 0.640625 -55.53125 Z M 0.640625 -55.53125 "/></g></g></g><g fill="#1800ad" fill-opacity="1"><g transform="translate(390.49614, 94.862408)"><g><path d="M 22.171875 0.96875 C 18.160156 0.96875 14.53125 0.117188 11.28125 -1.578125 C 8.03125 -3.285156 5.441406 -5.765625 3.515625 -9.015625 C 1.597656 -12.265625 0.640625 -16.195312 0.640625 -20.8125 C 0.640625 -23.875 1.023438 -26.804688 1.796875 -29.609375 C 2.578125 -32.410156 3.550781 -35.0625 4.71875 -37.5625 C 5.882812 -40.0625 7.035156 -42.382812 8.171875 -44.53125 C 9.316406 -46.6875 10.273438 -48.660156 11.046875 -50.453125 C 11.828125 -52.242188 12.21875 -53.847656 12.21875 -55.265625 C 12.21875 -56.390625 12.066406 -57.144531 11.765625 -57.53125 C 11.460938 -57.914062 11.007812 -58.109375 10.40625 -58.109375 C 9.84375 -58.109375 9.148438 -58 8.328125 -57.78125 C 7.515625 -57.570312 6.632812 -57.46875 5.6875 -57.46875 C 3.875 -57.46875 2.59375 -57.84375 1.84375 -58.59375 C 1.09375 -59.351562 0.71875 -60.398438 0.71875 -61.734375 C 0.71875 -63.367188 1.75 -65.328125 3.8125 -67.609375 C 5.882812 -69.898438 8.554688 -72.550781 11.828125 -75.5625 C 13.765625 -77.375 15.628906 -79.160156 17.421875 -80.921875 C 19.210938 -82.691406 20.804688 -84.160156 22.203125 -85.328125 C 23.609375 -86.492188 24.675781 -87.078125 25.40625 -87.078125 C 26.269531 -87.078125 26.90625 -86.785156 27.3125 -86.203125 C 27.71875 -85.617188 27.992188 -84.894531 28.140625 -84.03125 C 28.296875 -83.164062 28.375 -82.347656 28.375 -81.578125 L 28.375 -64.640625 L 31.03125 -64.640625 C 32.0625 -64.640625 32.898438 -64.316406 33.546875 -63.671875 C 34.191406 -63.023438 34.515625 -62.1875 34.515625 -61.15625 L 34.515625 -60.953125 C 34.515625 -59.921875 34.191406 -59.082031 33.546875 -58.4375 C 32.898438 -57.789062 32.0625 -57.46875 31.03125 -57.46875 L 28.375 -57.46875 L 28.375 -32.3125 C 28.375 -28.351562 28.675781 -25.125 29.28125 -22.625 C 29.882812 -20.125 30.640625 -18.128906 31.546875 -16.640625 C 32.453125 -15.160156 33.351562 -13.96875 34.25 -13.0625 C 35.15625 -12.15625 35.910156 -11.34375 36.515625 -10.625 C 37.117188 -9.914062 37.421875 -9.046875 37.421875 -8.015625 C 37.421875 -6.585938 36.957031 -5.3125 36.03125 -4.1875 C 35.101562 -3.070312 33.882812 -2.125 32.375 -1.34375 C 30.875 -0.570312 29.226562 0.00390625 27.4375 0.390625 C 25.644531 0.773438 23.890625 0.96875 22.171875 0.96875 Z M 22.171875 0.96875 "/></g></g></g><g fill="#1800ad" fill-opacity="1"><g transform="translate(428.56575, 94.862408)"><g/></g></g><g fill="#1800ad" fill-opacity="1"><g transform="translate(453.12681, 94.862408)"><g><path d="M 1.296875 -5.75 C 1.296875 -7.945312 1.488281 -9.960938 1.875 -11.796875 C 2.257812 -13.628906 2.742188 -15.546875 3.328125 -17.546875 C 3.910156 -19.554688 4.503906 -21.882812 5.109375 -24.53125 C 5.710938 -27.175781 6.207031 -30.375 6.59375 -34.125 C 6.976562 -37.875 7.171875 -42.441406 7.171875 -47.828125 C 7.171875 -52.316406 7.03125 -56.1875 6.75 -59.4375 C 6.46875 -62.6875 6.101562 -65.472656 5.65625 -67.796875 C 5.207031 -70.128906 4.734375 -72.15625 4.234375 -73.875 C 3.734375 -75.601562 3.257812 -77.164062 2.8125 -78.5625 C 2.363281 -79.96875 2 -81.359375 1.71875 -82.734375 C 1.4375 -84.117188 1.296875 -85.648438 1.296875 -87.328125 C 1.296875 -88.878906 1.671875 -90.050781 2.421875 -90.84375 C 3.179688 -91.644531 4.109375 -92.207031 5.203125 -92.53125 C 6.304688 -92.851562 7.394531 -93.023438 8.46875 -93.046875 C 9.539062 -93.066406 10.425781 -93.078125 11.125 -93.078125 L 47.90625 -93.078125 C 52.34375 -93.078125 56.269531 -92.179688 59.6875 -90.390625 C 63.113281 -88.609375 65.804688 -86.097656 67.765625 -82.859375 C 69.734375 -79.628906 70.71875 -75.863281 70.71875 -71.5625 C 70.71875 -69.707031 70.46875 -67.804688 69.96875 -65.859375 C 69.476562 -63.921875 68.660156 -62.054688 67.515625 -60.265625 C 66.367188 -58.484375 64.859375 -56.890625 62.984375 -55.484375 C 61.117188 -54.085938 58.804688 -53.023438 56.046875 -52.296875 C 54.960938 -51.992188 54.421875 -51.582031 54.421875 -51.0625 C 54.421875 -50.71875 54.851562 -50.351562 55.71875 -49.96875 C 56.582031 -49.582031 57.679688 -49.097656 59.015625 -48.515625 C 60.347656 -47.929688 61.78125 -47.109375 63.3125 -46.046875 C 64.84375 -44.992188 66.273438 -43.628906 67.609375 -41.953125 C 68.953125 -40.273438 70.050781 -38.160156 70.90625 -35.609375 C 71.769531 -33.066406 72.203125 -29.96875 72.203125 -26.3125 C 72.203125 -24.070312 71.890625 -21.734375 71.265625 -19.296875 C 70.640625 -16.859375 69.644531 -14.5 68.28125 -12.21875 C 66.925781 -9.9375 65.128906 -7.867188 62.890625 -6.015625 C 60.648438 -4.160156 57.914062 -2.691406 54.6875 -1.609375 C 51.457031 -0.535156 47.664062 0 43.3125 0 L 10.078125 0 C 9.390625 0 8.5625 -0.0078125 7.59375 -0.03125 C 6.625 -0.0507812 5.65625 -0.222656 4.6875 -0.546875 C 3.71875 -0.867188 2.910156 -1.425781 2.265625 -2.21875 C 1.617188 -3.019531 1.296875 -4.195312 1.296875 -5.75 Z M 31.609375 -23.40625 C 31.609375 -21.550781 31.953125 -20.3125 32.640625 -19.6875 C 33.328125 -19.0625 34.273438 -18.75 35.484375 -18.75 C 37.597656 -18.75 39.320312 -19.15625 40.65625 -19.96875 C 41.988281 -20.789062 43.03125 -21.828125 43.78125 -23.078125 C 44.539062 -24.328125 45.070312 -25.617188 45.375 -26.953125 C 45.675781 -28.285156 45.828125 -29.472656 45.828125 -30.515625 C 45.828125 -31.546875 45.675781 -32.738281 45.375 -34.09375 C 45.070312 -35.457031 44.539062 -36.765625 43.78125 -38.015625 C 43.03125 -39.265625 41.988281 -40.296875 40.65625 -41.109375 C 39.320312 -41.929688 37.597656 -42.34375 35.484375 -42.34375 C 34.273438 -42.34375 33.328125 -42.039062 32.640625 -41.4375 C 31.953125 -40.832031 31.609375 -39.582031 31.609375 -37.6875 C 31.609375 -37.25 31.617188 -36.546875 31.640625 -35.578125 C 31.660156 -34.609375 31.679688 -33.640625 31.703125 -32.671875 C 31.722656 -31.703125 31.734375 -30.984375 31.734375 -30.515625 C 31.734375 -30.078125 31.722656 -29.375 31.703125 -28.40625 C 31.679688 -27.4375 31.660156 -26.476562 31.640625 -25.53125 C 31.617188 -24.582031 31.609375 -23.875 31.609375 -23.40625 Z M 31.609375 -60.828125 C 31.609375 -59.492188 31.953125 -58.597656 32.640625 -58.140625 C 33.328125 -57.691406 34.273438 -57.46875 35.484375 -57.46875 C 37.597656 -57.46875 39.320312 -57.753906 40.65625 -58.328125 C 41.988281 -58.910156 43.03125 -59.65625 43.78125 -60.5625 C 44.539062 -61.46875 45.070312 -62.394531 45.375 -63.34375 C 45.675781 -64.289062 45.828125 -65.15625 45.828125 -65.9375 C 45.828125 -66.664062 45.675781 -67.515625 45.375 -68.484375 C 45.070312 -69.453125 44.539062 -70.390625 43.78125 -71.296875 C 43.03125 -72.203125 41.988281 -72.945312 40.65625 -73.53125 C 39.320312 -74.113281 37.597656 -74.40625 35.484375 -74.40625 C 34.273438 -74.40625 33.328125 -74.175781 32.640625 -73.71875 C 31.953125 -73.269531 31.609375 -72.378906 31.609375 -71.046875 Z M 31.609375 -60.828125 "/></g></g></g><g clip-path="url(#d0831b7ff3)"><g fill="#1800ad" fill-opacity="1"><g transform="translate(525.646571, 94.862408)"><g><path d="M 6.984375 -32.3125 C 6.984375 -35.164062 6.765625 -37.582031 6.328125 -39.5625 C 5.898438 -41.539062 5.375 -43.238281 4.75 -44.65625 C 4.125 -46.082031 3.5 -47.351562 2.875 -48.46875 C 2.25 -49.59375 1.71875 -50.703125 1.28125 -51.796875 C 0.851562 -52.898438 0.640625 -54.144531 0.640625 -55.53125 C 0.640625 -57.03125 1.242188 -58.203125 2.453125 -59.046875 C 3.660156 -59.890625 5.191406 -60.578125 7.046875 -61.109375 C 8.898438 -61.648438 10.796875 -62.179688 12.734375 -62.703125 C 13.503906 -62.921875 14.484375 -63.191406 15.671875 -63.515625 C 16.859375 -63.835938 18.066406 -64.160156 19.296875 -64.484375 C 20.523438 -64.804688 21.625 -65.070312 22.59375 -65.28125 C 23.5625 -65.5 24.257812 -65.609375 24.6875 -65.609375 C 25.769531 -65.609375 26.835938 -65.21875 27.890625 -64.4375 C 28.941406 -63.664062 29.8125 -62.320312 30.5 -60.40625 C 31.195312 -58.488281 31.546875 -55.804688 31.546875 -52.359375 C 31.546875 -50.078125 31.554688 -47.6875 31.578125 -45.1875 C 31.597656 -42.6875 31.609375 -40.316406 31.609375 -38.078125 C 31.609375 -35.835938 31.609375 -33.914062 31.609375 -32.3125 C 31.609375 -29.5625 31.898438 -26.890625 32.484375 -24.296875 C 33.066406 -21.710938 33.753906 -19.28125 34.546875 -17 C 35.347656 -14.71875 36.035156 -12.628906 36.609375 -10.734375 C 37.191406 -8.835938 37.484375 -7.175781 37.484375 -5.75 C 37.484375 -4.195312 37.160156 -3.019531 36.515625 -2.21875 C 35.867188 -1.425781 35.0625 -0.867188 34.09375 -0.546875 C 33.125 -0.222656 32.15625 -0.0507812 31.1875 -0.03125 C 30.21875 -0.0078125 29.390625 0 28.703125 0 L 9.953125 0 C 9.265625 0 8.4375 -0.0078125 7.46875 -0.03125 C 6.5 -0.0507812 5.53125 -0.222656 4.5625 -0.546875 C 3.59375 -0.867188 2.78125 -1.425781 2.125 -2.21875 C 1.476562 -3.019531 1.15625 -4.195312 1.15625 -5.75 C 1.15625 -7.476562 1.445312 -9.28125 2.03125 -11.15625 C 2.613281 -13.03125 3.289062 -15.039062 4.0625 -17.1875 C 4.84375 -19.34375 5.523438 -21.660156 6.109375 -24.140625 C 6.691406 -26.617188 6.984375 -29.34375 6.984375 -32.3125 Z M 19.140625 -69.484375 C 18.398438 -69.484375 17.351562 -69.765625 16 -70.328125 C 14.644531 -70.890625 13.203125 -71.664062 11.671875 -72.65625 C 10.140625 -73.644531 8.671875 -74.796875 7.265625 -76.109375 C 5.867188 -77.421875 4.726562 -78.863281 3.84375 -80.4375 C 2.957031 -82.007812 2.515625 -83.660156 2.515625 -85.390625 C 2.515625 -87.109375 2.890625 -88.613281 3.640625 -89.90625 C 4.398438 -91.207031 5.382812 -92.222656 6.59375 -92.953125 C 7.800781 -93.679688 9.113281 -94.046875 10.53125 -94.046875 C 12.519531 -94.046875 14.210938 -93.484375 15.609375 -92.359375 C 17.015625 -91.242188 18.191406 -90.109375 19.140625 -88.953125 C 20.128906 -90.109375 21.320312 -91.242188 22.71875 -92.359375 C 24.125 -93.484375 25.816406 -94.046875 27.796875 -94.046875 C 29.210938 -94.046875 30.535156 -93.679688 31.765625 -92.953125 C 32.992188 -92.222656 33.972656 -91.207031 34.703125 -89.90625 C 35.441406 -88.613281 35.8125 -87.109375 35.8125 -85.390625 C 35.8125 -83.660156 35.367188 -82.007812 34.484375 -80.4375 C 33.597656 -78.863281 32.453125 -77.421875 31.046875 -76.109375 C 29.648438 -74.796875 28.175781 -73.644531 26.625 -72.65625 C 25.082031 -71.664062 23.640625 -70.890625 22.296875 -70.328125 C 20.960938 -69.765625 19.910156 -69.484375 19.140625 -69.484375 Z M 19.140625 -69.484375 "/></g></g></g></g><g fill="#1800ad" fill-opacity="1"><g transform="translate(563.780802, 94.862408)"><g><path d="M 22.171875 0.96875 C 18.160156 0.96875 14.53125 0.117188 11.28125 -1.578125 C 8.03125 -3.285156 5.441406 -5.765625 3.515625 -9.015625 C 1.597656 -12.265625 0.640625 -16.195312 0.640625 -20.8125 C 0.640625 -23.875 1.023438 -26.804688 1.796875 -29.609375 C 2.578125 -32.410156 3.550781 -35.0625 4.71875 -37.5625 C 5.882812 -40.0625 7.035156 -42.382812 8.171875 -44.53125 C 9.316406 -46.6875 10.273438 -48.660156 11.046875 -50.453125 C 11.828125 -52.242188 12.21875 -53.847656 12.21875 -55.265625 C 12.21875 -56.390625 12.066406 -57.144531 11.765625 -57.53125 C 11.460938 -57.914062 11.007812 -58.109375 10.40625 -58.109375 C 9.84375 -58.109375 9.148438 -58 8.328125 -57.78125 C 7.515625 -57.570312 6.632812 -57.46875 5.6875 -57.46875 C 3.875 -57.46875 2.59375 -57.84375 1.84375 -58.59375 C 1.09375 -59.351562 0.71875 -60.398438 0.71875 -61.734375 C 0.71875 -63.367188 1.75 -65.328125 3.8125 -67.609375 C 5.882812 -69.898438 8.554688 -72.550781 11.828125 -75.5625 C 13.765625 -77.375 15.628906 -79.160156 17.421875 -80.921875 C 19.210938 -82.691406 20.804688 -84.160156 22.203125 -85.328125 C 23.609375 -86.492188 24.675781 -87.078125 25.40625 -87.078125 C 26.269531 -87.078125 26.90625 -86.785156 27.3125 -86.203125 C 27.71875 -85.617188 27.992188 -84.894531 28.140625 -84.03125 C 28.296875 -83.164062 28.375 -82.347656 28.375 -81.578125 L 28.375 -64.640625 L 31.03125 -64.640625 C 32.0625 -64.640625 32.898438 -64.316406 33.546875 -63.671875 C 34.191406 -63.023438 34.515625 -62.1875 34.515625 -61.15625 L 34.515625 -60.953125 C 34.515625 -59.921875 34.191406 -59.082031 33.546875 -58.4375 C 32.898438 -57.789062 32.0625 -57.46875 31.03125 -57.46875 L 28.375 -57.46875 L 28.375 -32.3125 C 28.375 -28.351562 28.675781 -25.125 29.28125 -22.625 C 29.882812 -20.125 30.640625 -18.128906 31.546875 -16.640625 C 32.453125 -15.160156 33.351562 -13.96875 34.25 -13.0625 C 35.15625 -12.15625 35.910156 -11.34375 36.515625 -10.625 C 37.117188 -9.914062 37.421875 -9.046875 37.421875 -8.015625 C 37.421875 -6.585938 36.957031 -5.3125 36.03125 -4.1875 C 35.101562 -3.070312 33.882812 -2.125 32.375 -1.34375 C 30.875 -0.570312 29.226562 0.00390625 27.4375 0.390625 C 25.644531 0.773438 23.890625 0.96875 22.171875 0.96875 Z M 22.171875 0.96875 "/></g></g></g><g fill="#1800ad" fill-opacity="1"><g transform="translate(601.850413, 94.862408)"><g><path d="M 1.609375 -32.3125 C 1.609375 -36.414062 2.304688 -40.445312 3.703125 -44.40625 C 5.109375 -48.375 7.242188 -51.953125 10.109375 -55.140625 C 12.984375 -58.328125 16.601562 -60.867188 20.96875 -62.765625 C 25.34375 -64.660156 30.523438 -65.609375 36.515625 -65.609375 C 39.835938 -65.609375 43.023438 -65.1875 46.078125 -64.34375 C 49.140625 -63.507812 51.867188 -62.238281 54.265625 -60.53125 C 56.660156 -58.832031 58.554688 -56.710938 59.953125 -54.171875 C 61.359375 -51.628906 62.0625 -48.65625 62.0625 -45.25 C 62.0625 -41.5 61.488281 -38.242188 60.34375 -35.484375 C 59.195312 -32.722656 57.664062 -30.394531 55.75 -28.5 C 53.832031 -26.601562 51.707031 -25.039062 49.375 -23.8125 C 47.050781 -22.59375 44.707031 -21.613281 42.34375 -20.875 C 40.101562 -20.1875 38.128906 -19.863281 36.421875 -19.90625 C 34.722656 -19.945312 33.378906 -19.96875 32.390625 -19.96875 C 31.828125 -19.96875 31.40625 -19.914062 31.125 -19.8125 C 30.84375 -19.707031 30.703125 -19.457031 30.703125 -19.0625 C 30.703125 -18.375 31.078125 -17.8125 31.828125 -17.375 C 32.585938 -16.945312 33.492188 -16.632812 34.546875 -16.4375 C 35.609375 -16.25 36.566406 -16.15625 37.421875 -16.15625 C 39.753906 -16.15625 41.71875 -16.445312 43.3125 -17.03125 C 44.90625 -17.613281 46.304688 -18.269531 47.515625 -19 C 48.722656 -19.738281 49.882812 -20.394531 51 -20.96875 C 52.125 -21.550781 53.351562 -21.84375 54.6875 -21.84375 C 56.15625 -21.84375 57.414062 -21.488281 58.46875 -20.78125 C 59.519531 -20.070312 60.378906 -19.164062 61.046875 -18.0625 C 61.722656 -16.96875 62.222656 -15.835938 62.546875 -14.671875 C 62.867188 -13.503906 63.03125 -12.445312 63.03125 -11.5 C 63.03125 -9.5625 62.09375 -7.632812 60.21875 -5.71875 C 58.34375 -3.800781 55.453125 -2.207031 51.546875 -0.9375 C 47.648438 0.332031 42.640625 0.96875 36.515625 0.96875 C 30.828125 0.96875 25.816406 0.03125 21.484375 -1.84375 C 17.160156 -3.71875 13.519531 -6.25 10.5625 -9.4375 C 7.613281 -12.625 5.382812 -16.195312 3.875 -20.15625 C 2.363281 -24.125 1.609375 -28.175781 1.609375 -32.3125 Z M 26.5625 -39.171875 C 25.488281 -36.410156 25.101562 -34.175781 25.40625 -32.46875 C 25.707031 -30.769531 26.65625 -29.921875 28.25 -29.921875 C 29.882812 -29.921875 31.53125 -30.769531 33.1875 -32.46875 C 34.851562 -34.175781 36.222656 -36.410156 37.296875 -39.171875 C 38.421875 -41.972656 38.820312 -44.222656 38.5 -45.921875 C 38.175781 -47.628906 37.191406 -48.484375 35.546875 -48.484375 C 33.953125 -48.484375 32.335938 -47.628906 30.703125 -45.921875 C 29.066406 -44.222656 27.6875 -41.972656 26.5625 -39.171875 Z M 26.5625 -39.171875 "/></g></g></g></g></g><g clip-path="url(#68e1c78619)"><g clip-path="url(#9dbc42168a)"><g clip-path="url(#ea220e278e)"><g transform="matrix(1, 0, 0, 1, 248, 100)"><g clip-path="url(#cf30d466fe)"><g clip-path="url(#8215fcbad1)"><g clip-path="url(#a77721ce43)"><g clip-path="url(#ec3e032789)"><path fill="#ffffff" d="M -6.882812 13 L 23.277344 -6.648438 L 42.929688 23.511719 L 12.769531 43.160156 Z M -6.882812 13 " fill-opacity="1" fill-rule="nonzero"/></g></g></g></g></g></g></g></g><g clip-path="url(#e5c3e7b8a4)"><g clip-path="url(#5fa8e67934)"><g clip-path="url(#043aaf3f2a)"><g transform="matrix(1, 0, 0, 1, 335, 45)"><g clip-path="url(#43e9e340f6)"><g clip-path="url(#80596fe350)"><g clip-path="url(#d01f4c74d2)"><g clip-path="url(#9a94318080)"><path fill="#ffffff" d="M -6.257812 12.988281 L 23.902344 -6.660156 L 43.554688 23.5 L 13.394531 43.148438 Z M -6.257812 12.988281 " fill-opacity="1" fill-rule="nonzero"/></g></g></g></g></g></g></g></g><g clip-path="url(#6fa4dc96c8)"><g clip-path="url(#4af04c3006)"><g clip-path="url(#c67c385826)"><g transform="matrix(1, 0, 0, 1, 509, 51)"><g clip-path="url(#eb0ac5e2e8)"><g clip-path="url(#4fe4b51594)"><g clip-path="url(#d5af8ee0f5)"><g clip-path="url(#6946d43f1f)"><path fill="#ffffff" d="M -3.839844 8.789062 L 16.003906 -4.140625 L 28.933594 15.703125 L 9.089844 28.628906 Z M -3.839844 8.789062 " fill-opacity="1" fill-rule="nonzero"/></g></g></g></g></g></g></g></g><g clip-path="url(#6ce1dc50c4)"><g clip-path="url(#bf8839c8ba)"><g clip-path="url(#3569221203)"><g transform="matrix(1, 0, 0, 1, 644, 107)"><g clip-path="url(#95a2a36437)"><g clip-path="url(#d02ced69b8)"><g clip-path="url(#5cb279c271)"><g clip-path="url(#9a02f60f8c)"><path fill="#ffffff" d="M -4.179688 8.464844 L 15.664062 -4.460938 L 28.589844 15.378906 L 8.75 28.308594 Z M -4.179688 8.464844 " fill-opacity="1" fill-rule="nonzero"/></g></g></g></g></g></g></g></g><g clip-path="url(#69c4247aaf)"><g clip-path="url(#0b4a5bdf06)"><g clip-path="url(#7a9f2e51e5)"><g transform="matrix(1, 0, 0, 1, 793, 51)"><g clip-path="url(#71ac6eebee)"><g clip-path="url(#83e9c1d825)"><g clip-path="url(#f0d5f81ca4)"><g clip-path="url(#8820fbdb2d)"><path fill="#ffffff" d="M -4.320312 8.789062 L 15.519531 -4.140625 L 28.449219 15.703125 L 8.605469 28.628906 Z M -4.320312 8.789062 " fill-opacity="1" fill-rule="nonzero"/></g></g></g></g></g></g></g></g></svg>